<?xml version="1.0" encoding="utf-8"?>
<!-- Generator: Adobe Illustrator 27.5.0, SVG Export Plug-In . SVG Version: 6.00 Build 0)  -->
<svg version="1.1" id="_1" xmlns="http://www.w3.org/2000/svg" xmlns:xlink="http://www.w3.org/1999/xlink" x="0px" y="0px"
	 viewBox="0 0 1042.214 800" style="enable-background:new 0 0 1042.214 800;" xml:space="preserve">
<rect style="fill:#FFFFFF;" width="1042.214" height="800"/>
<g>
	<ellipse style="fill:#766782;" cx="526.005" cy="685.378" rx="271.011" ry="10.167"/>
	<g>
		<g>
			<path style="fill:#FFF3E1;" d="M946.238,313.234c-9.191-41.89-25.828-81.813-44.971-120.189
				c-13.317-26.696-28.2-53.187-49.609-73.963c-21.218-20.591-47.968-34.663-75.546-45.325
				c-50.224-19.416-105.258-28.318-158.435-19.849c-53.177,8.469-104.249,35.259-137.146,77.888
				c-26.322,34.109-40.016,76.269-63.571,112.344c-23.556,36.075-63.429,67.625-105.939,60.611
				c-15.172-2.503-29.319-9.758-44.586-11.59c-30.664-3.681-60.75,16.021-76.54,42.563c-15.79,26.542-19.467,58.62-18.592,89.492
				c1.562,55.105,16.689,109.775,43.674,157.846l700.356,107.121c-0.57,0.563-0.752,2.331,0.437,2.41
				c1.684,0.113,2.655-1.834,3.158-3.445c22.851-73.262,32.642-150.066,36.137-226.73
				C957.342,412.51,956.945,362.034,946.238,313.234z"/>
			<path style="fill:#FFF3E1;" d="M306.626,257.673c-34.797-16.404-76.608-10.478-107.505,11.776
				c-30.388,21.887-50.04,55.976-58.236,92.154c-5.36,23.66-6.454,48.038-4.798,72.183c0.52,7.581,12.217,7.731,11.924,0
				c-1.405-37.064,2.729-75.457,20.608-108.565c15.597-28.882,41.029-52.601,73.51-60.411c19.046-4.58,39.587-3.365,57.504,4.828
				C307.658,273.307,314.725,261.491,306.626,257.673z"/>
			<path style="fill:#FFF3E1;" d="M160.937,491.404c-1.988-6.306-4.137-12.582-6.486-18.762c-2.771-7.289-14.166-4.513-11.923,3.287
				c1.825,6.347,3.87,12.649,6.061,18.879C151.291,502.497,163.44,499.344,160.937,491.404z"/>
			<path style="fill:#FFF3E1;" d="M945.666,633.7c-1.999,9.645-4.865,18.989-7.897,28.35c-1.891,5.838,7.313,9.887,10.039,4.232
				c4.512-9.359,7.492-19.196,9.462-29.383C958.729,629.353,947.244,626.085,945.666,633.7z"/>
			<path style="fill:#FFF3E1;" d="M957.762,606.312c-7.708,0-7.721,11.979,0,11.979C965.47,618.29,965.482,606.312,957.762,606.312z
				"/>
		</g>
		<path style="fill:#5F7AB3;" d="M371.427,548.799c-33.997,0-35.056,0.091-70.009,12.491c-34.953,12.4-68.317,29.347-70.435,33.584
			c-2.118,4.237,33.894,61.432,33.894,61.432l-33.983,18.906c0,0,4.327,50.47,10.682,59.473c6.355,9.003,18.006,9.003,44.485,0
			s104.858-42.897,106.447-37.071c1.589,5.825,9.003-3.178,21.184-5.296c12.18-2.118,175.932-10.062,188.323-11.121
			s-58.574-105.123-61.751-107.374C537.085,571.571,371.427,548.799,371.427,548.799z"/>
		<path style="fill:#FFFFFF;" d="M653.094,331.591c26.449,17.023,64.182,28.359,73.896,36.337
			c9.714,7.978,27.226,98.013,16.634,135.999c-10.592,37.986-109.887,105.722-134.117,107.866
			c-24.23,2.144-175.163-117.025-170.396-134.496c4.766-17.47,43.42-66.46,72.021-84.332
			C539.733,375.094,653.094,331.591,653.094,331.591z"/>
		<path style="fill:#464C7B;" d="M230.895,676.767c-0.547,0-1.076-0.287-1.361-0.799c-0.418-0.75-0.147-1.697,0.603-2.116
			c42.837-23.854,49.064-26.472,57.089-27.303c15.446-1.598,33.424-5.767,36.399-11.143c4.418-7.983,7.225-11.046,41.713-28.157
			c29.43-14.601,37.052-14.059,48.598-13.24c1.977,0.141,4.073,0.29,6.428,0.369c15.66,0.509,72.425-0.697,72.998-0.708
			c0.833,0.027,1.571,0.665,1.589,1.522c0.018,0.858-0.662,1.571-1.522,1.589c-0.571,0.012-57.411,1.241-73.168,0.705
			c-2.399-0.079-4.533-0.231-6.545-0.374c-11.042-0.789-18.326-1.302-46.995,12.922c-33.653,16.699-36.32,19.554-40.373,26.878
			c-4.869,8.801-33.176,12.149-38.802,12.732c-7.508,0.776-13.564,3.353-55.895,26.926
			C231.41,676.703,231.151,676.767,230.895,676.767z"/>
		<path style="fill:#E5EAEC;" d="M682.821,467.45c-0.003,0-0.008,0-0.011,0c-1.288-0.006-2.329-1.056-2.323-2.344
			c0.012-2.807,0.688-69.078,34.159-95.29c1.013-0.795,2.481-0.617,3.275,0.398c0.794,1.015,0.617,2.481-0.398,3.275
			c-31.688,24.816-32.367,90.973-32.37,91.638C685.149,466.412,684.105,467.45,682.821,467.45z"/>
		<g>
			<path style="fill:#A9644C;" d="M770.005,673.599c-17.414,8.897-34.94,17.575-52.571,26.032
				c-5.326,2.555-10.706,5.105-16.436,6.539c-6.965,1.742-14.226,1.78-21.405,1.808c-36.643,0.144-73.285,0.288-109.928,0.432
				c-6.487,0.025-13.108,0.031-19.266-2.01c-6.158-2.041-11.881-6.526-13.666-12.762c-0.613-2.141-0.813-4.545-2.319-6.185
				c-1.244-1.354-3.159-1.913-4.466-3.206c-3.435-3.399-1.206-9.974-4.561-13.451c-1.263-1.308-3.076-1.888-4.674-2.756
				c-6.296-3.42-8.903-12.269-5.468-18.557c-2.844-2.48-6.921-3.972-10.68-3.641c-2.927,0.258-5.931,1.42-8.712,0.471
				c-3.498-1.194-5.093-5.141-6.267-8.646c-2.88,0.275-5.861-1.099-7.522-3.468c-1.661-2.369-1.937-5.64-0.697-8.254
				c-9.26-8.417-12.455-22.846-7.613-34.385c0.569-1.357,1.247-2.712,1.353-4.18c0.076-1.052-0.149-2.099-0.231-3.15
				c-0.319-4.092,1.71-8.286,5.116-10.576c3.406-2.29,8.055-2.587,11.724-0.749c0.093-4.753,3.15-9.322,7.509-11.221
				c1.546-0.674,3.263-1.055,4.565-2.128c1.363-1.123,2.074-2.848,3.26-4.156c1.532-1.688,3.879-2.601,6.149-2.389
				c-0.213-6.219,5.329-12.049,11.551-12.151c1.331-0.022,2.796,0.146,3.869-0.642c0.848-0.623,1.218-1.685,1.737-2.599
				c1.508-2.656,4.677-4.267,7.711-3.921c0.106-6.156,4.817-11.935,10.826-13.278c1.677-0.375,3.419-0.437,5.072-0.91
				c1.554-0.445,2.98-1.241,4.391-2.03c2.702-1.511,5.404-3.022,8.105-4.532c-4.104-0.779-3.34-6.626-6.264-9.61
				c-0.831-0.848-1.914-1.391-2.906-2.043c-6.086-4.001-8.37-12.848-4.979-19.295c-4.339-1.46-7.021-6.228-6.912-10.804
				c0.108-4.576,2.583-8.846,5.873-12.03c-13.388-8.978-18.573-28.327-11.47-42.797c7.103-14.47,25.582-22.202,40.874-17.102
				c3.864,1.289,7.475,3.276,10.779,5.659c3.581,2.584,6.82,5.642,9.604,9.069c3.567-3.357,8.194-5.943,13.077-5.562
				c4.883,0.381,9.63,3.862,10.6,8.663c1.584-2.028,4.461-2.94,6.924-2.196c2.463,0.744,4.354,3.097,4.55,5.663
				c4.227-1.775,8.56-3.575,13.138-3.82s9.529,1.366,12.089,5.17c0.708,1.053,1.336,2.34,2.548,2.713
				c1.033,0.318,2.176-0.155,3.222,0.117c1.747,0.454,2.339,2.648,2.278,4.452c-0.061,1.804-0.418,3.774,0.563,5.289
				c-0.063-0.941-0.126-1.882-0.188-2.823c4.79-6.109,11.86-9.4,19.623-9.375c7.245,0.023,13.688,4.704,18.503,10.118
				c6.671,7.501,11.285,16.812,13.215,26.662c0.892,4.552,1.207,9.33-0.105,13.779c-2.997,10.162-13.355,15.995-22.807,20.782
				c0.055,2.366-1.668,4.659-3.956,5.264c2.291,2.307,2.295,6.48,0.009,8.792c-0.955,0.965-2.2,1.597-3.183,2.533
				c-1.728,1.643-2.476,4.03-3.454,6.205c-4.02,8.933-13.184,15.322-22.956,16.004c4.987,1.071,9.473,4.296,12.076,8.683
				c1.252,2.109,2.172,4.567,4.184,5.969c3.485,2.428,9.193,0.942,11.656,4.402c2.004,2.815,0.719,7.706,3.776,9.32
				c1.202,0.635,2.648,0.443,4.005,0.526c5.873,0.359,10.356,7.199,8.341,12.728c4.24-1.29,9.091,2.965,8.364,7.337
				c6.431-1.593,13.68,3.405,14.477,9.982c9.466-3.034,20.702,5.093,20.783,15.033c0.011,1.315-0.085,2.797,0.812,3.759
				c0.766,0.821,1.988,0.961,3.088,1.189c8.781,1.819,13.56,13.742,8.466,21.122c6.278,1.368,10.484,8.76,8.453,14.855
				c-0.45,1.349-1.162,2.712-0.919,4.114c0.201,1.16,1.018,2.096,1.674,3.073C777.754,660.131,776.029,670.522,770.005,673.599z"/>
			<path style="fill:#92503D;" d="M561.001,577.663c0.537-5.112,3.824-9.24,3.911-14.529c0.043-2.611-4.007-2.374-4.05,0.225
				c-0.075,4.562-2.856,8.344-3.685,12.734c-0.799,4.234,0.977,8.203,0.732,12.423c-0.292,5.034-3.829,8.075-5.049,12.636
				c-0.597,2.231,0.177,4.805-0.67,6.946c-1.093,2.763-3.969,3.82-5.823,5.852c-2.016,2.21-1.337,4.07-0.971,6.76
				c0.808,5.932-1.398,12.076-6.231,15.775c-3.654,2.797-7.778,2.384-11.547,4.395c-4.903,2.617-7.106,9.211-14.01,5.334
				c-2.032-1.141-3.48,1.932-1.618,3.157c3.662,2.408,8.029,2.363,11.805,0.121c2.201-1.307,3.976-4.288,6.227-5.282
				c2.098-0.926,4.713-0.822,6.901-1.753c9.678-4.118,12.638-12.825,12.483-22.517c-0.051-3.209,0.921-3.693,3.172-5.822
				c1.655-1.566,3.045-3.335,3.712-5.543c0.727-2.407-0.02-5.034,0.896-7.397c0.958-2.47,2.832-4.455,3.727-7.01
				C562.986,588.263,560.388,583.493,561.001,577.663z"/>
			<path style="fill:#92503D;" d="M732.441,588.967c-4.476,0.924-7.492,2.891-11.4,5.003c-3.26,1.762-6.995,1.904-10.115,4.177
				c-2.874,2.094-4.986,5.054-6.582,8.192c-1.44,2.831-2.444,9.783-4.868,11.514c-0.643,0.459-2.745,0.465-4.013,0.705
				c-0.498-2.674-1.813-4.632-3.567-6.832c-3.072-3.853-3.595-6.516-3.251-11.479c0.213-3.07,0.058-5.877-1.798-8.435
				c-2.743-3.779-6.21-4.655-6.15-10.169c0.042-3.887,0.636-7.247-1.125-10.87c-1.541-3.171-4.189-5.67-6.163-8.562
				c-5.197-7.613-7.352-16.479-10.176-25.11c-0.717-2.191-3.818-1.044-3.332,1.121c1.743,7.766,4.126,15.644,7.995,22.641
				c1.847,3.341,4.297,6.062,6.47,9.153c3.24,4.61,1.988,8.363,2.29,13.509c0.173,2.953,1.241,5.225,3.291,7.311
				c0.906,0.922,2.157,1.642,2.978,2.642c2.473,3.01,1.688,5.543,1.469,8.988c-0.165,2.588-0.044,4.889,1.093,7.243
				c1.681,3.483,5.58,5.81,6.06,9.86c0.034,0.289,0.121,0.538,0.238,0.758c-0.313,0.216-0.618,0.443-0.912,0.68
				c-2.274,1.842-3.789,4.272-4.625,7.059c-1.218,4.063-1.278,8.43-2.387,12.546c-1.06,3.934-2.614,7.605-4.441,11.199
				c-0.09-0.562-0.213-1.125-0.38-1.689c-1.3-4.385-4.688-7.814-6-12.17c-1.449-4.808,0.334-9.794-2.596-14.241
				c-1.982-3.008-5.25-5.139-8.369-6.823c-1.969-1.063-4.022-1.92-6.137-2.645c-3.685-1.265-5.584-2.799-8.654-4.957
				c-5.884-4.136-14.445-1.812-20.398,1.019c-3.894,1.852-6.643,4.312-9.307,7.633c-1.445,1.802-2.222,3.281-4.606,3.711
				c-2.052,0.37-3.991,0.367-6.011,1.066c-3.402,1.177-6.508,3.298-8.882,6.002c-3.038,3.461-3.645,7.24-5.165,11.403
				c-0.704,1.93-1.792,3.287-3.073,4.398c-0.126-0.123-0.268-0.239-0.441-0.337c-3.99-2.272-8.105-2.014-12.498-1.205
				c-3.89,0.716-7.171,1.418-11.067,0.284c-2.364-0.688-4.624-1.77-6.948-2.588c-1.946-0.685-3.048,2.528-1.211,3.386
				c3.8,1.776,7.95,3.791,12.224,3.848c5.465,0.074,10.977-2.804,16.2-0.809c-1.506,0.917-3.05,1.858-4.446,3.147
				c-2.74,2.53-3.493,5.345-3.747,8.982c-0.234,3.334-0.535,5.926-2.125,8.976c-1.164,2.233-2.638,4.308-3.614,6.639
				c-2.061,4.924-1.897,10.073,0.368,14.888c0.945,2.009,4.21,1.046,3.363-1.131c-2.033-5.225-1.512-9.765,1.169-14.638
				c1.777-3.229,3.867-6.278,4.558-9.97c0.775-4.138-0.349-7.96,3.183-11.142c2.309-2.08,5.436-3.138,7.832-5.141
				c5.444-4.553,4.4-12.342,9.42-17.306c3.081-3.047,6.915-4.353,11.138-4.703c2.83-0.235,4.508-0.424,6.244-2.845
				c2.545-3.55,4.312-6.412,8.347-8.51c3.714-1.931,8.566-3.489,12.776-3.155c4.249,0.336,6.118,3.772,9.745,5.398
				c3.807,1.706,7.816,2.585,11.442,4.789c2.329,1.415,4.993,3.296,6.061,5.939c0.807,1.995,0.551,4.326,0.63,6.421
				c0.142,3.742,1.045,6.811,2.858,10.086c2.489,4.496,4.959,8.029,3.938,13.482c-0.847,4.518-2.839,8.998-4.33,13.332
				c-1.485,4.315-3.165,14.596-7.458,16.803c-2.62,1.348-5.626,0.732-7.909,2.989c-2.529,2.499-3.559,6.436-5.845,9.218
				c-3.256,3.963-7.455,6.875-12.19,8.79c-2.406,0.973-1.136,4.828,1.293,3.845c7.95-3.215,13.529-8.602,17.865-15.892
				c1.539-2.587,2.754-3.825,5.602-4.513c1.397-0.338,2.824-0.544,4.082-1.303c3.646-2.199,4.516-7.426,5.792-11.135
				c1.72-5.001,3.451-9.998,5.161-15.002c0.885-2.591,1.779-5.247,2.137-7.94c0.724,0.178,1.557-0.028,2.062-0.837
				c3.946-6.333,6.431-13.395,7.607-20.75c0.7-4.377,1.025-8.659,5.1-11.354c2.514-1.662,5.69-0.711,7.96-2.276
				c2.268-1.564,2.834-5.912,3.739-8.28c1.607-4.206,3.479-8.738,7.254-11.474c2.816-2.042,6.189-1.79,9.131-3.43
				c3.878-2.162,6.946-4.356,11.443-5.283C736.281,592.287,734.974,588.444,732.441,588.967z"/>
			<path style="fill:#92503D;" d="M617.066,529.208c-6.678,2.353-11.442,0.526-17.579-2.037c-4.243-1.772-7.659-0.86-12.083-0.803
				c-5.62,0.073-6.718-5.585-10.402-8.595c-3.87-3.161-11.296-2.55-13.274-7.767c-0.806-2.125-4.069-1.054-3.363,1.131
				c1.702,5.268,6.376,6.173,10.943,8.078c5.231,2.182,6.385,8.31,11.505,10.424c2.563,1.058,5.149,0.706,7.83,0.442
				c3.949-0.389,6.771,0.692,10.362,2.262c5.699,2.492,11.475,2.774,17.354,0.71C620.818,532.19,619.537,528.338,617.066,529.208z"
				/>
			<path style="fill:#92503D;" d="M599.357,420.034c-7.276,1.92-14.82,4.001-20.619,9.054c-2.243,1.954-3.421,4.313-5.284,6.469
				c-1.443,1.67-0.432,1.408-2.878,1.696c-1.303,0.153-2.6,0.424-3.85,0.824c-5.224,1.67-9.886,5.49-12.474,10.334
				c-0.508,0.952-0.938,1.95-1.288,2.971c-0.897,2.621-1.877,3.779-3.776,5.84c-1.74,1.888-2.84,3.332-3.614,5.802
				c-0.582,1.855,2.556,3.003,3.238,1.158c1.382-3.741,4.146-3.684,6.259-6.43c1.474-1.916,1.404-4.763,2.452-6.901
				c3.107-6.34,9.749-9.931,16.683-9.663c0.633,0.024,1.456-0.495,1.683-1.094c3.952-10.44,14.926-13.618,24.763-16.214
				C603.172,423.213,601.876,419.369,599.357,420.034z"/>
			<path style="fill:#92503D;" d="M701.141,490.745c-2.316-5.52-0.334-11.34-2.905-16.643c-1.656-3.416-2.59-6.048-2.76-9.861
				c-0.113-2.54-0.44-4.821-1.498-7.162c-0.891-1.971-2.18-3.698-3.741-5.183c-1.367-1.299-2.982-2.471-3.842-4.23
				c-0.543-1.111-0.69-2.468-1.242-3.612c-1.027-2.128-2.517-3.946-4.396-5.38c-3.148-2.402-8.821-3.395-8.723-8.328
				c0.037-1.867-3.12-2.152-3.316-0.263c-0.475,4.587,2.219,7.316,5.966,9.566c4.482,2.692,6.032,4.525,7.866,9.31
				c0.973,2.538,2.433,3.635,4.392,5.408c5.797,5.244,2.927,11.5,5.676,17.73c0.763,1.729,2.082,3.415,2.623,5.217
				c0.584,1.942,0.217,3.477,0.174,5.396c-0.074,3.299,0.607,6.292,1.88,9.326C698.299,494.428,702.155,493.16,701.141,490.745z"/>
			<path style="fill:#DE835C;" d="M662.592,633.222c-1.47-3.129-3.608-6.018-6.498-7.915c-4.394-2.883-10.128-3.168-15.189-1.752
				c-0.552,0.154-1.095,0.335-1.634,0.524c-3.065,4.043-6.978,7.582-12.227,7.214c-1.348,1.064-2.683,2.248-3.983,3.526
				c1.471,7.148-4.907,14.158-11.558,17.467c-1.186,3.253-1.919,6.612-1.995,9.975c6.98,1.456,9.645,9.778,8.884,17.055
				c4.744-2.342,9.412,0.354,12.4,4.4c6.048-0.268,11.928-2.859,16.685-6.656c5.393-4.304,9.464-10.06,12.76-16.122
				c1.793-3.298,3.389-6.741,4.224-10.401C665.775,644.772,665.107,638.574,662.592,633.222z"/>
			<path style="fill:#DE835C;" d="M755.633,629.227c-1.882-5.852-4.633-11.932-10.184-15.102c-8.459-4.83-19.24-1.844-24.549,6.092
				c-2.189,3.271-3.502,7.022-4.369,10.88c0.033,0.156,0.045,0.311,0.072,0.467c1.218,1.185,2.125,2.777,2.623,4.385
				c1.169,3.779-0.081,7.26-1.881,10.503c-0.352,1.312-0.724,2.623-1.064,3.945c5.858,0.982,6.604,10.637,6.257,17.733
				c4.343-1.142,7.727,3.108,9.356,6.997c2.284,0.253,4.65-0.083,6.811-0.895c3.248-1.22,6.061-3.414,8.42-5.957
				c3.858-4.158,6.596-9.285,8.293-14.697C757.884,645.71,758.157,637.078,755.633,629.227z"/>
			<path style="fill:#DE835C;" d="M523.229,621.332c-0.013-0.563-0.037-1.126-0.082-1.688c-0.2-2.474-0.716-4.945-1.779-7.187
				c-0.501-1.058-1.113-2.032-1.807-2.936c-2.144,0.48-4.448,0.355-6.404-0.569c-2.677-1.264-3.432-3.73-2.802-6.198
				c-0.577-0.251-1.162-0.489-1.754-0.71c-0.095,0.321-0.303,0.623-0.67,0.856c-6.178,3.923-17.352,3.495-19.376-4.158
				c-16.943,0.6-5.143,20.634,3.132,26.814c5.779,4.316,12.302,7.635,19.193,9.766c2.794,0.864,6.089,1.457,8.437-0.288
				c0.739-0.549,1.296-1.277,1.734-2.086C519.124,629.447,520.112,624.541,523.229,621.332z"/>
			<path style="fill:#DE835C;" d="M664.242,450.022c-0.819,0.046-35.385-0.014-57.917,18.057c-1.736,4.486-5.657,7.943-10.1,10.701
				c-1.268,1.817-2.432,3.745-3.467,5.799c-0.175,0.348-0.332,0.69-0.493,1.033c4.674,5.09,2.438,12.967-0.609,19.535
				c5.261,0.883,6.762,5.76,6.172,10.687c6.8,6.307,16.82,10.798,26.998,13.649c4.624-4.544,11.765-2.935,15.43,2.446
				c6.367-4.522,14.3-7.03,17.539,1.164c20.738-1.197,33.333-7.747,34.568-35.697C693.717,466.736,664.242,450.022,664.242,450.022z
				"/>
			<path style="fill:#4A3333;" d="M632.807,454.877c-0.383,0.481,17.178,22.954,25.535,26.568
				c8.357,3.614,27.192-10.179,27.192-10.179s-6.413-19.521-20.811-21.78C650.323,447.227,632.807,454.877,632.807,454.877z"/>
			<path style="fill:#92503D;" d="M666.852,507.762c-1.597,0.924-3.256,1.737-4.949,2.441c-0.251-0.029-0.524-0.008-0.815,0.078
				c-5.785,1.722-11.673,1.868-17.227,0.61c6.365-7.607,11.076-16.221,13.928-25.776c0.654-2.19-2.739-2.856-3.436-0.745
				c-3.114,9.425-7.991,17.914-14.598,25.311c-4.773-1.749-9.193-4.584-12.934-8.443c-0.698-0.72-1.509-0.601-2.065-0.111
				c-0.932,0.387-1.6,1.497-0.9,2.611c9.715,15.457,30.718,17.179,45.041,7.115C670.859,509.475,668.912,506.571,666.852,507.762z"
				/>
		</g>
		<g>
			<g>
				<path style="fill:#86282C;" d="M538.451,235.863c0,0-28.583-18.893-25.069-61.304c3.514-42.41,36.618-15.729,41.316-21.597
					c4.697-5.868,7.106-18.882,39.75-19.641c32.644-0.759,53.92,28.693,53.92,28.693s26.645-11.273,32.117,35.919
					S657,301.223,650.04,311.901C643.08,322.578,538.451,235.863,538.451,235.863z"/>
			</g>
			<g>
				<path style="fill:#EB9367;" d="M575.536,379.879c1.559-5.002,3.715-7.017,11.18-17.419c0.872-1.213,1.516-2.406,1.914-3.581
					c3.789-11.369,0-20.843,0-20.843l35.489-34.447l25.921-33.372c0,0,3.013,52.661,14.381,71.608
					c1.927,3.212,5.182,5.51,5.871,8.674C682.013,404.37,569.843,398.15,575.536,379.879z"/>
			</g>
			<g>
				<path style="fill:#86282C;" d="M647.81,179.03c-0.182,0-0.366-0.019-0.551-0.06c-1.386-0.303-2.266-1.665-1.967-3.052
					c0.076-0.351,1.933-8.643,8.941-12.356c4.491-2.38,9.908-2.314,16.099,0.191c3.93,1.589,7.352,3.84,10.172,6.692
					c1,1.01,0.991,2.641-0.02,3.64c-1.01,1-2.641,0.993-3.64-0.02c-2.324-2.35-5.164-4.214-8.441-5.539
					c-4.704-1.9-8.65-2.046-11.729-0.429c-4.886,2.567-6.336,8.852-6.35,8.915C650.055,178.21,648.99,179.03,647.81,179.03z"/>
			</g>
			<g>
				<path style="fill:#1A1A1A;" d="M586.716,362.46c0.872-1.213,1.516-2.406,1.914-3.581c3.789-11.369,0-20.843,0-20.843
					l35.489-34.447l15.67,2.236C639.789,305.824,641.608,358.386,586.716,362.46z"/>
			</g>
			<g>
				<g>
					<path style="fill:#EB9367;" d="M534.063,246.364c1.019,8.498-0.078,74.506,17.976,92.492
						c9.541,9.505,33.659,9.014,44.988,6.881c26.164-4.926,45.194-18.943,52.443-41.372c2.416-7.476,2.207-12.197,1.833-21.517
						c0,0,31.615-17.846,13.263-42.315c-13.263-17.684-27.64,10.371-27.64,10.371s-9.535-7.774-16.657-31.411
						c-20.176,4.335-65.894,7.918-79.433-8.379C540.836,211.114,532.391,232.427,534.063,246.364z"/>
				</g>
				<g>
					<path style="fill:#1A1A1A;" d="M591.672,253.62c1.072-1.22,2.376-1.935,3.882-1.866c0.173-0.019,0.342-0.029,0.508-0.034
						c0.063-0.009,0.119-0.033,0.186-0.03c0.064,0.002,0.11,0.024,0.172,0.027c5.194,0.161,7.081,7.121,4.865,11.224
						c-0.252,0.969-0.693,1.859-1.498,2.461c-0.796,0.596-1.796,0.892-2.802,0.912c-0.083,0.046-0.157,0.1-0.261,0.128
						c-2.378,0.623-4.144-0.64-5.203-2.635C589.126,261.09,589.153,256.486,591.672,253.62z"/>
				</g>
				<g>
					<path style="fill:#1A1A1A;" d="M535.827,261.327c2.02-3.104,6.26-3.88,9.211-1.61c0.262,0.201,0.497,0.433,0.715,0.682
						c0.751,0.78,1.214,1.806,1.249,2.96c0.009,0.134,0.01,0.267,0.007,0.401c-0.003,0.041,0.006,0.08,0.002,0.122
						c-0.173,2.021-0.396,4.074-1.488,5.839c-2.107,3.404-6.776,3.167-9.282,0.394C534.062,267.705,534.102,263.977,535.827,261.327
						z"/>
				</g>
				<g>
					<path style="fill:#D75B43;" d="M562.874,291.599c0.124-1.464,1.481-2.63,2.955-2.491c1.451,0.137,2.902,0.275,4.353,0.412
						c1.469,0.139,2.616,1.475,2.491,2.955c-0.124,1.464-1.481,2.63-2.955,2.491c-1.451-0.137-2.901-0.274-4.353-0.412
						C563.896,294.416,562.749,293.079,562.874,291.599z"/>
				</g>
				<g>
					<path style="fill:#86282C;" d="M588.014,231.413c3.583,1.319,13.988,5.205,17.489,6.879c3.158,1.509,1.076,6.565-2.109,5.043
						c-3.499-1.672-13.907-5.56-17.489-6.879C582.606,235.241,584.713,230.197,588.014,231.413z"/>
				</g>
				<g>
					<path style="fill:#86282C;" d="M532.275,244.212c1.717-2.955,4.194-4.459,7.12-6.04c3.074-1.661,6.025,2.943,2.919,4.621
						c-1.936,1.046-4.016,1.914-5.165,3.891C535.387,249.716,530.506,247.255,532.275,244.212z"/>
				</g>
				<g>
					<path style="fill:#1A1A1A;" d="M593.276,318.625c0.435-2.259,0.708-4.549,0.816-6.848c0.052-1.105-0.094-2.474-1.116-2.896
						c-0.545-0.225-1.163-0.086-1.735,0.056c-6.235,1.547-12.47,3.095-18.704,4.642c-0.876,0.217-1.831,0.488-2.335,1.237
						c-0.516,0.768-0.386,1.789-0.167,2.687c1.539,6.296,8.133,13.868,15.07,13.833c4.85-0.025,6.116-4.79,7.221-8.702
						C592.7,321.312,593.017,319.974,593.276,318.625z"/>
				</g>
			</g>
		</g>
		<path style="fill:#FFFFFF;" d="M718.469,372.446c-9.93,17.874,10.327,62.359,7.547,83.41c-1.078,8.161-14.553,51.64-24.706,52.999
			c-10.153,1.36-6.763,6.072-8.902,9.106c-2.139,3.034-18.628-2.263-22.696-0.806c-4.068,1.457-19.956,52.695-15.984,64.611
			c3.972,11.916,59.143,15.57,67.655,19.462c8.512,3.892,11.091-6.09,18.535-5.296c7.445,0.794,25.754-3.442,31.315-25.685
			c5.561-22.243,0.461-77.849-8.277-125.91S729.38,352.805,718.469,372.446z"/>
		<path style="fill:#E5EAEC;" d="M525.035,460.967c-1.265,0-2.305-1.012-2.332-2.283c-0.005-0.255-0.512-25.816,1.995-53.482
			c0.117-1.284,1.244-2.239,2.535-2.113c1.284,0.117,2.229,1.252,2.113,2.535c-2.484,27.396-1.982,52.707-1.976,52.96
			c0.027,1.288-0.995,2.356-2.283,2.384C525.07,460.967,525.052,460.967,525.035,460.967z"/>
		<path style="fill:#E5EAEC;" d="M735.112,576.155c-0.939,0-1.825-0.571-2.18-1.501c-0.19-0.497-19.239-49.716-41.017-54.412
			c-1.259-0.27-2.06-1.512-1.79-2.773c0.273-1.259,1.536-2.054,2.774-1.788c24.237,5.225,43.581,55.184,44.393,57.307
			c0.46,1.203-0.143,2.552-1.348,3.013C735.671,576.106,735.39,576.155,735.112,576.155z"/>
		<path style="fill:#4A3333;" d="M656.836,585.433c9.067-4.871,8.57-13.084,13.175-33.854c3.854-17.379,5.679-26.665,0.27-34.549
			c-0.198,0.038-0.41,0.068-0.571,0.125c-4.068,1.457-19.956,52.695-15.984,64.611C654.167,583.088,655.268,584.303,656.836,585.433
			L656.836,585.433z"/>
		<path style="fill:#464C7B;" d="M285.729,633.003c-12.694-16.255-35.163-41.342-54.772-37.971
			c-0.351,1.273,1.536,5.65,4.599,11.551c13.459,17.003,43.132,46.476,45.474,45.589
			C284.577,650.829,298.703,649.618,285.729,633.003z"/>
		<path style="fill:#464C7B;" d="M253.634,697.724c-3.888-10.989-5.621-22.808-13.062-27.898l-9.679,5.384
			c0,0,4.327,50.47,10.681,59.473c2.299,3.257,5.309,5.319,9.447,6.219C261.496,738.029,258.758,712.21,253.634,697.724z"/>
		<g>
			<path style="fill:#DB7E56;" d="M328.786,532.772c15.396,3.714,45.318,10.466,50.349,4.641
				c5.031-5.826-8.473-59.843-11.916-59.314c-3.442,0.53-31.113-4.634-35.218,5.958
				C327.897,494.648,328.786,532.772,328.786,532.772z"/>
			<path style="fill:#333333;" d="M538.228,438.855l29.164,161.085c0.638,3.525-2.601,6.52-6.065,5.608l-196.563-51.731
				c-1.817-0.478-3.2-1.954-3.56-3.798l-27.715-142.04c-0.655-3.356,2.244-6.333,5.616-5.768l195.115,32.687
				C536.256,435.239,537.86,436.823,538.228,438.855z"/>
			<path style="fill:#EB9367;" d="M670.806,521.641c-41.372-15.72-68.846-19.711-78.114-27.92
				c-9.268-8.209-6.355-13.504-20.124-19.86c-13.769-6.355-29.657-14.034-45.015-15.093c-15.358-1.059-15.822,2.648-14.431,7.017
				c1.39,4.369,7.745,6.156,7.745,6.156s-11.121-3.177-17.675-1.192c-6.554,1.986-7.149,8.242-3.475,10.923
				c3.373,2.461,16.583,4.171,17.377,4.369c0.794,0.199-7.149-1.787-9.533,2.78c-2.383,4.568-0.596,9.533,5.561,10.724
				c6.156,1.191,21.647,7.547,21.647,7.547s-9.93-5.759-13.703-1.589s-2.582,9.334,5.561,12.512
				c8.142,3.178,27.208,7.944,35.747,11.916c8.54,3.972,14.497,8.142,23.434,9.731c8.937,1.589,68.913,37.535,73.878,39.123
				c4.965,1.589,7.745-12.313,10.327-27.208C672.593,536.684,676.107,523.656,670.806,521.641z"/>
			<path style="fill:#EB9367;" d="M332.498,475.021c13.514-3.782,34.357-4.171,37.535,0c3.177,4.171,0.975,8.97-7.141,8.369
				c-8.116-0.601-11.627,0.766-11.627,0.766s11.41,0.319,14.795,2.979c4.422,3.475,0.497,7.944-8.142,9.334
				c-7.193,1.158-10.966,1.986-10.966,1.986s14.541-0.397,17.917,2.582c3.376,2.979,0.199,8.142-9.731,10.923
				c-9.93,2.78-20.257,6.84-18.271,6.697c1.986-0.143,11.32-3.233,13.504,0c2.185,3.233-6.752,13.063-16.483,14.751
				c-8.718,1.512-7.745-6.951-7.149-9.533c0.596-2.582-3.475-4.369-3.277-10.526c0.199-6.156,3.078-5.084,0.894-10.486
				c-2.185-5.402-1.192-7.785,0.596-13.941C326.739,482.766,322.563,477.801,332.498,475.021z"/>
		</g>
		<path style="fill:#FFF3E1;" d="M78.872,591.155c-15.57,1.732-21.726,31.521-21.329,45.224
			c0.397,13.703,16.841,43.89,21.329,61.168c4.488,17.278,1.311,43.492,8.46,60.174c7.149,16.682,23.831,16.285,38.13,11.518
			s27.876-20.257,58.225-21.845s57.755-8.341,67.685-15.888c9.93-7.547,3.575-53.012-14.696-56.295S78.872,591.155,78.872,591.155z"
			/>
		<path style="fill:#97B1CE;" d="M60.109,616.156c8.678,20.273,21.924,46.488,28.415,50.3c6.95,4.082,22.332-4.668,22.332-4.668
			l1.896-47.453c0,0-3.87-3.83-9.151-9.003c-14.847-8.457-24.729-14.178-24.729-14.178
			C69.234,592.227,63.211,604.052,60.109,616.156z"/>
		<path style="fill:#FFF3E1;" d="M240.072,596.799c-28.212,17.421-57.812,33.557-64.696,34.086
			c-6.885,0.53-13.769-13.24-20.654-39.19c-6.885-25.95-13.24-35.212-27.539-42.897c-14.299-7.685-49.781,22.65-48.722,39.19
			c1.059,16.54,21.713,43.956,32.305,70.435c10.592,26.479,19.595,47.663,37.071,58.255c17.476,10.592,34.423,5.718,41.308-8.262
			c6.885-13.98,10.592-19.276,17.476-21.924c6.885-2.648,78.379-30.848,82.086-41.374
			C292.415,634.592,249.792,590.797,240.072,596.799z"/>
		<path style="fill:#97B1CE;" d="M150.545,577.922c-5.599-15.825-11.949-22.991-23.361-29.124
			c-14.299-7.685-49.781,22.65-48.722,39.19c0.516,8.054,5.689,18.698,12.073,30.546c0.827-5.335,17.057-24.458,25.792-32.002
			C125.063,578.987,134.99,572.634,150.545,577.922z"/>
		<path style="fill:#97B1CE;" d="M177.494,666.765c-12.004-1.501-42.399,1.636-49.758,28.418
			c5.524,9.139,11.867,16.505,20.101,21.496c17.476,10.592,34.424,5.718,41.308-8.262c5.2-10.559,8.589-16.161,12.901-19.412
			C198.696,677.505,187.186,667.976,177.494,666.765z"/>
		<path style="fill:#464C7B;" d="M167.383,724.107c-7.238,0-15.484-2.789-23.552-8.217c-12.193-8.207-21.292-26.714-30.091-44.613
			l-0.644-1.31c-9.176-18.656-24.131-51.17-36.081-81.408c-0.316-0.799,0.076-1.702,0.875-2.018
			c0.791-0.319,1.701,0.074,2.017,0.875c11.917,30.15,26.831,62.573,35.981,81.177l0.644,1.311
			c8.618,17.532,17.532,35.66,29.036,43.402c12.29,8.269,24.813,10.022,32.686,4.576c3.927-2.716,6.906-8.524,9.787-14.139
			c3.455-6.732,6.716-13.09,11.772-14.706c8.254-2.64,72.194-33.388,72.838-33.698c0.776-0.374,1.703-0.044,2.077,0.728
			c0.372,0.775,0.047,1.705-0.728,2.077c-2.642,1.27-64.78,31.151-73.239,33.855c-3.825,1.223-6.94,7.294-9.951,13.164
			c-3.057,5.957-6.218,12.117-10.785,15.277C176.474,722.899,172.147,724.107,167.383,724.107z"/>
		<path style="fill:#97B1CE;" d="M81.85,723.499c0.694,12.228,1.427,24.758,5.482,34.222c7.149,16.682,23.832,16.285,38.13,11.519
			c4.956-1.652,9.84-4.598,15.35-7.801c2.403-7.31,2.109-16.609-2.243-23.776C132.042,726.911,105.837,708.553,81.85,723.499z"/>
	</g>
</g>
</svg>
