<?xml version="1.0" encoding="UTF-8"?>
<svg id="_1" xmlns="http://www.w3.org/2000/svg" version="1.1" xmlns:xlink="http://www.w3.org/1999/xlink" viewBox="0 0 1042.2 800">
  <!-- Generator: Adobe Illustrator 29.3.0, SVG Export Plug-In . SVG Version: 2.1.0 Build 146)  -->
  <defs>
    <style>
      .st0 {
        fill: #97b1ce;
      }

      .st1 {
        fill: #86282c;
      }

      .st2 {
        fill: #766782;
      }

      .st3 {
        fill: #fff;
      }

      .st4 {
        fill: #4a3333;
      }

      .st5 {
        fill: #5f7ab3;
      }

      .st6 {
        fill: #92503d;
      }

      .st7 {
        fill: #eb9367;
      }

      .st8 {
        fill: #db7e56;
      }

      .st9 {
        fill: #333;
      }

      .st10 {
        fill: #1a1a1a;
      }

      .st11 {
        fill: #de835c;
      }

      .st12 {
        fill: #464c7b;
      }

      .st13 {
        fill: #e5eaec;
      }

      .st14 {
        fill: #fff3e1;
      }

      .st15 {
        fill: #d75b43;
      }

      .st16 {
        fill: #a9644c;
      }
    </style>
  </defs>
  <ellipse class="st2" cx="526" cy="685.4" rx="271" ry="10.2"/>
  <g>
    <g>
      <path class="st14" d="M946.2,313.2c-9.2-41.9-25.8-81.8-45-120.2-13.3-26.7-28.2-53.2-49.6-74-21.2-20.6-48-34.7-75.5-45.3-50.2-19.4-105.3-28.3-158.4-19.8s-104.2,35.3-137.1,77.9c-26.3,34.1-40,76.3-63.6,112.3-23.6,36.1-63.4,67.6-105.9,60.6-15.2-2.5-29.3-9.8-44.6-11.6-30.7-3.7-60.8,16-76.5,42.6-15.8,26.5-19.5,58.6-18.6,89.5,1.6,55.1,16.7,109.8,43.7,157.8l700.4,107.1c-.6.6-.8,2.3.4,2.4,1.7.1,2.7-1.8,3.2-3.4,22.9-73.3,32.6-150.1,36.1-226.7,2.3-49.9,1.9-100.4-8.8-149.2Z"/>
      <path class="st14" d="M306.6,257.7c-34.8-16.4-76.6-10.5-107.5,11.8-30.4,21.9-50,56-58.2,92.2-5.4,23.7-6.5,48-4.8,72.2.5,7.6,12.2,7.7,11.9,0-1.4-37.1,2.7-75.5,20.6-108.6,15.6-28.9,41-52.6,73.5-60.4,19-4.6,39.6-3.4,57.5,4.8,8,3.7,15.1-8.1,7-12Z"/>
      <path class="st14" d="M160.9,491.4c-2-6.3-4.1-12.6-6.5-18.8-2.8-7.3-14.2-4.5-11.9,3.3,1.8,6.3,3.9,12.6,6.1,18.9,2.7,7.7,14.9,4.5,12.3-3.4Z"/>
      <path class="st14" d="M945.7,633.7c-2,9.6-4.9,19-7.9,28.3-1.9,5.8,7.3,9.9,10,4.2,4.5-9.4,7.5-19.2,9.5-29.4,1.5-7.5-10-10.8-11.6-3.2Z"/>
      <path class="st14" d="M957.8,606.3c-7.7,0-7.7,12,0,12,7.7,0,7.7-12,0-12Z"/>
    </g>
    <path class="st5" d="M371.4,548.8c-34,0-35.1,0-70,12.5s-68.3,29.3-70.4,33.6,33.9,61.4,33.9,61.4l-34,18.9s4.3,50.5,10.7,59.5c6.4,9,18,9,44.5,0s104.9-42.9,106.4-37.1c1.6,5.8,9-3.2,21.2-5.3,12.2-2.1,175.9-10.1,188.3-11.1s-58.6-105.1-61.8-107.4c-3.2-2.3-168.8-25-168.8-25Z"/>
    <path class="st3" d="M653.1,331.6c26.4,17,64.2,28.4,73.9,36.3s27.2,98,16.6,136c-10.6,38-109.9,105.7-134.1,107.9s-175.2-117-170.4-134.5c4.8-17.5,43.4-66.5,72-84.3,28.6-17.9,142-61.4,142-61.4Z"/>
    <path class="st12" d="M230.9,676.8c-.5,0-1.1-.3-1.4-.8-.4-.8-.1-1.7.6-2.1,42.8-23.9,49.1-26.5,57.1-27.3,15.4-1.6,33.4-5.8,36.4-11.1,4.4-8,7.2-11,41.7-28.2,29.4-14.6,37.1-14.1,48.6-13.2,2,.1,4.1.3,6.4.4,15.7.5,72.4-.7,73-.7.8,0,1.6.7,1.6,1.5,0,.9-.7,1.6-1.5,1.6-.6,0-57.4,1.2-73.2.7-2.4,0-4.5-.2-6.5-.4-11-.8-18.3-1.3-47,12.9-33.7,16.7-36.3,19.6-40.4,26.9-4.9,8.8-33.2,12.1-38.8,12.7-7.5.8-13.6,3.4-55.9,26.9-.2.1-.5.2-.8.2Z"/>
    <path class="st13" d="M682.8,467.5h0c-1.3,0-2.3-1.1-2.3-2.3,0-2.8.7-69.1,34.2-95.3,1-.8,2.5-.6,3.3.4s.6,2.5-.4,3.3c-31.7,24.8-32.4,91-32.4,91.6,0,1.3-1,2.3-2.3,2.3Z"/>
    <g>
      <path class="st16" d="M770,673.6c-17.4,8.9-34.9,17.6-52.6,26-5.3,2.6-10.7,5.1-16.4,6.5-7,1.7-14.2,1.8-21.4,1.8-36.6.1-73.3.3-109.9.4-6.5,0-13.1,0-19.3-2s-11.9-6.5-13.7-12.8c-.6-2.1-.8-4.5-2.3-6.2-1.2-1.4-3.2-1.9-4.5-3.2-3.4-3.4-1.2-10-4.6-13.5-1.3-1.3-3.1-1.9-4.7-2.8-6.3-3.4-8.9-12.3-5.5-18.6-2.8-2.5-6.9-4-10.7-3.6-2.9.3-5.9,1.4-8.7.5-3.5-1.2-5.1-5.1-6.3-8.6-2.9.3-5.9-1.1-7.5-3.5s-1.9-5.6-.7-8.3c-9.3-8.4-12.5-22.8-7.6-34.4.6-1.4,1.2-2.7,1.4-4.2,0-1.1-.1-2.1-.2-3.2-.3-4.1,1.7-8.3,5.1-10.6s8.1-2.6,11.7-.7c0-4.8,3.1-9.3,7.5-11.2,1.5-.7,3.3-1.1,4.6-2.1,1.4-1.1,2.1-2.8,3.3-4.2,1.5-1.7,3.9-2.6,6.1-2.4-.2-6.2,5.3-12,11.6-12.2,1.3,0,2.8.1,3.9-.6.8-.6,1.2-1.7,1.7-2.6,1.5-2.7,4.7-4.3,7.7-3.9.1-6.2,4.8-11.9,10.8-13.3,1.7-.4,3.4-.4,5.1-.9,1.6-.4,3-1.2,4.4-2,2.7-1.5,5.4-3,8.1-4.5-4.1-.8-3.3-6.6-6.3-9.6-.8-.8-1.9-1.4-2.9-2-6.1-4-8.4-12.8-5-19.3-4.3-1.5-7-6.2-6.9-10.8.1-4.6,2.6-8.8,5.9-12-13.4-9-18.6-28.3-11.5-42.8s25.6-22.2,40.9-17.1c3.9,1.3,7.5,3.3,10.8,5.7,3.6,2.6,6.8,5.6,9.6,9.1,3.6-3.4,8.2-5.9,13.1-5.6,4.9.4,9.6,3.9,10.6,8.7,1.6-2,4.5-2.9,6.9-2.2s4.4,3.1,4.5,5.7c4.2-1.8,8.6-3.6,13.1-3.8s9.5,1.4,12.1,5.2c.7,1.1,1.3,2.3,2.5,2.7,1,.3,2.2-.2,3.2.1,1.7.5,2.3,2.6,2.3,4.5s-.4,3.8.6,5.3c0-.9-.1-1.9-.2-2.8,4.8-6.1,11.9-9.4,19.6-9.4,7.2,0,13.7,4.7,18.5,10.1,6.7,7.5,11.3,16.8,13.2,26.7.9,4.6,1.2,9.3-.1,13.8-3,10.2-13.4,16-22.8,20.8,0,2.4-1.7,4.7-4,5.3,2.3,2.3,2.3,6.5,0,8.8-1,1-2.2,1.6-3.2,2.5-1.7,1.6-2.5,4-3.5,6.2-4,8.9-13.2,15.3-23,16,5,1.1,9.5,4.3,12.1,8.7,1.3,2.1,2.2,4.6,4.2,6,3.5,2.4,9.2.9,11.7,4.4,2,2.8.7,7.7,3.8,9.3,1.2.6,2.6.4,4,.5,5.9.4,10.4,7.2,8.3,12.7,4.2-1.3,9.1,3,8.4,7.3,6.4-1.6,13.7,3.4,14.5,10,9.5-3,20.7,5.1,20.8,15,0,1.3,0,2.8.8,3.8.8.8,2,1,3.1,1.2,8.8,1.8,13.6,13.7,8.5,21.1,6.3,1.4,10.5,8.8,8.5,14.9-.5,1.3-1.2,2.7-.9,4.1.2,1.2,1,2.1,1.7,3.1,3.8,5.6,2,16-4,19.1Z"/>
      <path class="st6" d="M561,577.7c.5-5.1,3.8-9.2,3.9-14.5,0-2.6-4-2.4-4,.2,0,4.6-2.9,8.3-3.7,12.7-.8,4.2,1,8.2.7,12.4-.3,5-3.8,8.1-5,12.6-.6,2.2.2,4.8-.7,6.9-1.1,2.8-4,3.8-5.8,5.9-2,2.2-1.3,4.1-1,6.8.8,5.9-1.4,12.1-6.2,15.8-3.7,2.8-7.8,2.4-11.5,4.4-4.9,2.6-7.1,9.2-14,5.3-2-1.1-3.5,1.9-1.6,3.2,3.7,2.4,8,2.4,11.8.1,2.2-1.3,4-4.3,6.2-5.3,2.1-.9,4.7-.8,6.9-1.8,9.7-4.1,12.6-12.8,12.5-22.5,0-3.2.9-3.7,3.2-5.8,1.7-1.6,3-3.3,3.7-5.5.7-2.4,0-5,.9-7.4,1-2.5,2.8-4.5,3.7-7,2.1-5.9-.5-10.7,0-16.5Z"/>
      <path class="st6" d="M732.4,589c-4.5.9-7.5,2.9-11.4,5-3.3,1.8-7,1.9-10.1,4.2-2.9,2.1-5,5.1-6.6,8.2-1.4,2.8-2.4,9.8-4.9,11.5-.6.5-2.7.5-4,.7-.5-2.7-1.8-4.6-3.6-6.8-3.1-3.9-3.6-6.5-3.3-11.5.2-3.1,0-5.9-1.8-8.4-2.7-3.8-6.2-4.7-6.2-10.2,0-3.9.6-7.2-1.1-10.9-1.5-3.2-4.2-5.7-6.2-8.6-5.2-7.6-7.4-16.5-10.2-25.1-.7-2.2-3.8-1-3.3,1.1,1.7,7.8,4.1,15.6,8,22.6,1.8,3.3,4.3,6.1,6.5,9.2,3.2,4.6,2,8.4,2.3,13.5.2,3,1.2,5.2,3.3,7.3.9.9,2.2,1.6,3,2.6,2.5,3,1.7,5.5,1.5,9-.2,2.6,0,4.9,1.1,7.2,1.7,3.5,5.6,5.8,6.1,9.9,0,.3.1.5.2.8-.3.2-.6.4-.9.7-2.3,1.8-3.8,4.3-4.6,7.1-1.2,4.1-1.3,8.4-2.4,12.5-1.1,3.9-2.6,7.6-4.4,11.2,0-.6-.2-1.1-.4-1.7-1.3-4.4-4.7-7.8-6-12.2-1.4-4.8.3-9.8-2.6-14.2-2-3-5.2-5.1-8.4-6.8-2-1.1-4-1.9-6.1-2.6-3.7-1.3-5.6-2.8-8.7-5-5.9-4.1-14.4-1.8-20.4,1-3.9,1.9-6.6,4.3-9.3,7.6-1.4,1.8-2.2,3.3-4.6,3.7-2.1.4-4,.4-6,1.1-3.4,1.2-6.5,3.3-8.9,6-3,3.5-3.6,7.2-5.2,11.4-.7,1.9-1.8,3.3-3.1,4.4-.1-.1-.3-.2-.4-.3-4-2.3-8.1-2-12.5-1.2-3.9.7-7.2,1.4-11.1.3-2.4-.7-4.6-1.8-6.9-2.6-1.9-.7-3,2.5-1.2,3.4,3.8,1.8,8,3.8,12.2,3.8,5.5,0,11-2.8,16.2-.8-1.5.9-3,1.9-4.4,3.1-2.7,2.5-3.5,5.3-3.7,9-.2,3.3-.5,5.9-2.1,9-1.2,2.2-2.6,4.3-3.6,6.6-2.1,4.9-1.9,10.1.4,14.9.9,2,4.2,1,3.4-1.1-2-5.2-1.5-9.8,1.2-14.6,1.8-3.2,3.9-6.3,4.6-10,.8-4.1-.3-8,3.2-11.1,2.3-2.1,5.4-3.1,7.8-5.1,5.4-4.6,4.4-12.3,9.4-17.3,3.1-3,6.9-4.4,11.1-4.7,2.8-.2,4.5-.4,6.2-2.8,2.5-3.5,4.3-6.4,8.3-8.5,3.7-1.9,8.6-3.5,12.8-3.2,4.2.3,6.1,3.8,9.7,5.4,3.8,1.7,7.8,2.6,11.4,4.8,2.3,1.4,5,3.3,6.1,5.9.8,2,.6,4.3.6,6.4.1,3.7,1,6.8,2.9,10.1,2.5,4.5,5,8,3.9,13.5-.8,4.5-2.8,9-4.3,13.3-1.5,4.3-3.2,14.6-7.5,16.8-2.6,1.3-5.6.7-7.9,3-2.5,2.5-3.6,6.4-5.8,9.2-3.3,4-7.5,6.9-12.2,8.8-2.4,1-1.1,4.8,1.3,3.8,8-3.2,13.5-8.6,17.9-15.9,1.5-2.6,2.8-3.8,5.6-4.5,1.4-.3,2.8-.5,4.1-1.3,3.6-2.2,4.5-7.4,5.8-11.1,1.7-5,3.5-10,5.2-15,.9-2.6,1.8-5.2,2.1-7.9.7.2,1.6,0,2.1-.8,3.9-6.3,6.4-13.4,7.6-20.8.7-4.4,1-8.7,5.1-11.4,2.5-1.7,5.7-.7,8-2.3,2.3-1.6,2.8-5.9,3.7-8.3,1.6-4.2,3.5-8.7,7.3-11.5,2.8-2,6.2-1.8,9.1-3.4,3.9-2.2,6.9-4.4,11.4-5.3,2.5-.5,1.2-4.4-1.3-3.8Z"/>
      <path class="st6" d="M617.1,529.2c-6.7,2.4-11.4.5-17.6-2-4.2-1.8-7.7-.9-12.1-.8-5.6,0-6.7-5.6-10.4-8.6-3.9-3.2-11.3-2.5-13.3-7.8-.8-2.1-4.1-1.1-3.4,1.1,1.7,5.3,6.4,6.2,10.9,8.1,5.2,2.2,6.4,8.3,11.5,10.4,2.6,1.1,5.1.7,7.8.4,3.9-.4,6.8.7,10.4,2.3,5.7,2.5,11.5,2.8,17.4.7,2.5-.9,1.2-4.7-1.3-3.8Z"/>
      <path class="st6" d="M599.4,420c-7.3,1.9-14.8,4-20.6,9.1-2.2,2-3.4,4.3-5.3,6.5-1.4,1.7-.4,1.4-2.9,1.7-1.3.2-2.6.4-3.8.8-5.2,1.7-9.9,5.5-12.5,10.3-.5,1-.9,2-1.3,3-.9,2.6-1.9,3.8-3.8,5.8-1.7,1.9-2.8,3.3-3.6,5.8-.6,1.9,2.6,3,3.2,1.2,1.4-3.7,4.1-3.7,6.3-6.4,1.5-1.9,1.4-4.8,2.5-6.9,3.1-6.3,9.7-9.9,16.7-9.7.6,0,1.5-.5,1.7-1.1,4-10.4,14.9-13.6,24.8-16.2,2.5-.7,1.2-4.5-1.3-3.8Z"/>
      <path class="st6" d="M701.1,490.7c-2.3-5.5-.3-11.3-2.9-16.6-1.7-3.4-2.6-6-2.8-9.9-.1-2.5-.4-4.8-1.5-7.2-.9-2-2.2-3.7-3.7-5.2-1.4-1.3-3-2.5-3.8-4.2-.5-1.1-.7-2.5-1.2-3.6-1-2.1-2.5-3.9-4.4-5.4-3.1-2.4-8.8-3.4-8.7-8.3,0-1.9-3.1-2.2-3.3-.3-.5,4.6,2.2,7.3,6,9.6,4.5,2.7,6,4.5,7.9,9.3,1,2.5,2.4,3.6,4.4,5.4,5.8,5.2,2.9,11.5,5.7,17.7.8,1.7,2.1,3.4,2.6,5.2.6,1.9.2,3.5.2,5.4,0,3.3.6,6.3,1.9,9.3,1,2.4,4.9,1.1,3.8-1.3Z"/>
      <path class="st11" d="M662.6,633.2c-1.5-3.1-3.6-6-6.5-7.9-4.4-2.9-10.1-3.2-15.2-1.8-.6.2-1.1.3-1.6.5-3.1,4-7,7.6-12.2,7.2-1.3,1.1-2.7,2.2-4,3.5,1.5,7.1-4.9,14.2-11.6,17.5-1.2,3.3-1.9,6.6-2,10,7,1.5,9.6,9.8,8.9,17.1,4.7-2.3,9.4.4,12.4,4.4,6-.3,11.9-2.9,16.7-6.7,5.4-4.3,9.5-10.1,12.8-16.1,1.8-3.3,3.4-6.7,4.2-10.4,1.3-5.8.6-12-1.9-17.3Z"/>
      <path class="st11" d="M755.6,629.2c-1.9-5.9-4.6-11.9-10.2-15.1-8.5-4.8-19.2-1.8-24.5,6.1-2.2,3.3-3.5,7-4.4,10.9,0,.2,0,.3,0,.5,1.2,1.2,2.1,2.8,2.6,4.4,1.2,3.8,0,7.3-1.9,10.5-.4,1.3-.7,2.6-1.1,3.9,5.9,1,6.6,10.6,6.3,17.7,4.3-1.1,7.7,3.1,9.4,7,2.3.3,4.7,0,6.8-.9,3.2-1.2,6.1-3.4,8.4-6,3.9-4.2,6.6-9.3,8.3-14.7,2.5-7.9,2.7-16.5.2-24.4Z"/>
      <path class="st11" d="M523.2,621.3c0-.6,0-1.1,0-1.7-.2-2.5-.7-4.9-1.8-7.2-.5-1.1-1.1-2-1.8-2.9-2.1.5-4.4.4-6.4-.6-2.7-1.3-3.4-3.7-2.8-6.2-.6-.3-1.2-.5-1.8-.7,0,.3-.3.6-.7.9-6.2,3.9-17.4,3.5-19.4-4.2-16.9.6-5.1,20.6,3.1,26.8,5.8,4.3,12.3,7.6,19.2,9.8,2.8.9,6.1,1.5,8.4-.3.7-.5,1.3-1.3,1.7-2.1-1.9-3.5-.9-8.4,2.2-11.6Z"/>
      <path class="st11" d="M664.2,450c-.8,0-35.4,0-57.9,18.1-1.7,4.5-5.7,7.9-10.1,10.7-1.3,1.8-2.4,3.7-3.5,5.8-.2.3-.3.7-.5,1,4.7,5.1,2.4,13-.6,19.5,5.3.9,6.8,5.8,6.2,10.7,6.8,6.3,16.8,10.8,27,13.6,4.6-4.5,11.8-2.9,15.4,2.4,6.4-4.5,14.3-7,17.5,1.2,20.7-1.2,33.3-7.7,34.6-35.7,1.4-30.7-28.1-47.4-28.1-47.4Z"/>
      <path class="st4" d="M632.8,454.9c-.4.5,17.2,23,25.5,26.6,8.4,3.6,27.2-10.2,27.2-10.2,0,0-6.4-19.5-20.8-21.8-14.4-2.3-31.9,5.4-31.9,5.4Z"/>
      <path class="st6" d="M666.9,507.8c-1.6.9-3.3,1.7-4.9,2.4-.3,0-.5,0-.8,0-5.8,1.7-11.7,1.9-17.2.6,6.4-7.6,11.1-16.2,13.9-25.8.7-2.2-2.7-2.9-3.4-.7-3.1,9.4-8,17.9-14.6,25.3-4.8-1.7-9.2-4.6-12.9-8.4-.7-.7-1.5-.6-2.1-.1-.9.4-1.6,1.5-.9,2.6,9.7,15.5,30.7,17.2,45,7.1,2-1.4,0-4.3-2-3.1Z"/>
    </g>
    <g>
      <path class="st1" d="M538.5,235.9s-28.6-18.9-25.1-61.3c3.5-42.4,36.6-15.7,41.3-21.6,4.7-5.9,7.1-18.9,39.8-19.6s53.9,28.7,53.9,28.7c0,0,26.6-11.3,32.1,35.9s-23.5,103.3-30.4,114c-7,10.7-111.6-76-111.6-76Z"/>
      <path class="st7" d="M575.5,379.9c1.6-5,3.7-7,11.2-17.4.9-1.2,1.5-2.4,1.9-3.6,3.8-11.4,0-20.8,0-20.8l35.5-34.4,25.9-33.4s3,52.7,14.4,71.6c1.9,3.2,5.2,5.5,5.9,8.7,11.7,53.9-100.4,47.7-94.8,29.4Z"/>
      <path class="st1" d="M647.8,179c-.2,0-.4,0-.6,0-1.4-.3-2.3-1.7-2-3.1,0-.4,1.9-8.6,8.9-12.4,4.5-2.4,9.9-2.3,16.1.2,3.9,1.6,7.4,3.8,10.2,6.7,1,1,1,2.6,0,3.6-1,1-2.6,1-3.6,0-2.3-2.4-5.2-4.2-8.4-5.5-4.7-1.9-8.7-2-11.7-.4-4.9,2.6-6.3,8.9-6.3,8.9-.3,1.2-1.3,2-2.5,2Z"/>
      <path class="st10" d="M586.7,362.5c.9-1.2,1.5-2.4,1.9-3.6,3.8-11.4,0-20.8,0-20.8l35.5-34.4,15.7,2.2s1.8,52.6-53.1,56.6Z"/>
      <g>
        <path class="st7" d="M534.1,246.4c1,8.5,0,74.5,18,92.5,9.5,9.5,33.7,9,45,6.9,26.2-4.9,45.2-18.9,52.4-41.4,2.4-7.5,2.2-12.2,1.8-21.5,0,0,31.6-17.8,13.3-42.3-13.3-17.7-27.6,10.4-27.6,10.4,0,0-9.5-7.8-16.7-31.4-20.2,4.3-65.9,7.9-79.4-8.4,0,0-8.4,21.3-6.8,35.2Z"/>
        <path class="st10" d="M591.7,253.6c1.1-1.2,2.4-1.9,3.9-1.9.2,0,.3,0,.5,0,0,0,.1,0,.2,0,0,0,.1,0,.2,0,5.2.2,7.1,7.1,4.9,11.2-.3,1-.7,1.9-1.5,2.5-.8.6-1.8.9-2.8.9,0,0-.2.1-.3.1-2.4.6-4.1-.6-5.2-2.6-2.4-2.7-2.4-7.3.2-10.2Z"/>
        <path class="st10" d="M535.8,261.3c2-3.1,6.3-3.9,9.2-1.6.3.2.5.4.7.7.8.8,1.2,1.8,1.2,3,0,.1,0,.3,0,.4,0,0,0,0,0,.1-.2,2-.4,4.1-1.5,5.8-2.1,3.4-6.8,3.2-9.3.4-2.2-2.4-2.1-6.1-.4-8.8Z"/>
        <path class="st15" d="M562.9,291.6c.1-1.5,1.5-2.6,3-2.5,1.5.1,2.9.3,4.4.4,1.5.1,2.6,1.5,2.5,3-.1,1.5-1.5,2.6-3,2.5-1.5-.1-2.9-.3-4.4-.4-1.5-.1-2.6-1.5-2.5-3Z"/>
        <path class="st1" d="M588,231.4c3.6,1.3,14,5.2,17.5,6.9,3.2,1.5,1.1,6.6-2.1,5-3.5-1.7-13.9-5.6-17.5-6.9-3.3-1.2-1.2-6.3,2.1-5Z"/>
        <path class="st1" d="M532.3,244.2c1.7-3,4.2-4.5,7.1-6,3.1-1.7,6,2.9,2.9,4.6-1.9,1-4,1.9-5.2,3.9-1.8,3-6.6.6-4.9-2.5Z"/>
        <path class="st10" d="M593.3,318.6c.4-2.3.7-4.5.8-6.8,0-1.1,0-2.5-1.1-2.9-.5-.2-1.2,0-1.7,0-6.2,1.5-12.5,3.1-18.7,4.6-.9.2-1.8.5-2.3,1.2-.5.8-.4,1.8-.2,2.7,1.5,6.3,8.1,13.9,15.1,13.8,4.8,0,6.1-4.8,7.2-8.7.4-1.3.7-2.7,1-4Z"/>
      </g>
    </g>
    <path class="st3" d="M718.5,372.4c-9.9,17.9,10.3,62.4,7.5,83.4-1.1,8.2-14.6,51.6-24.7,53-10.2,1.4-6.8,6.1-8.9,9.1s-18.6-2.3-22.7-.8-20,52.7-16,64.6,59.1,15.6,67.7,19.5c8.5,3.9,11.1-6.1,18.5-5.3,7.4.8,25.8-3.4,31.3-25.7s.5-77.8-8.3-125.9-33.6-91.5-44.5-71.9Z"/>
    <path class="st13" d="M525,461c-1.3,0-2.3-1-2.3-2.3,0-.3-.5-25.8,2-53.5.1-1.3,1.2-2.2,2.5-2.1,1.3.1,2.2,1.3,2.1,2.5-2.5,27.4-2,52.7-2,53,0,1.3-1,2.4-2.3,2.4,0,0,0,0,0,0Z"/>
    <path class="st13" d="M735.1,576.2c-.9,0-1.8-.6-2.2-1.5-.2-.5-19.2-49.7-41-54.4-1.3-.3-2.1-1.5-1.8-2.8.3-1.3,1.5-2.1,2.8-1.8,24.2,5.2,43.6,55.2,44.4,57.3.5,1.2-.1,2.6-1.3,3-.3.1-.6.2-.8.2Z"/>
    <path class="st4" d="M656.8,585.4c9.1-4.9,8.6-13.1,13.2-33.9,3.9-17.4,5.7-26.7.3-34.5-.2,0-.4,0-.6.1-4.1,1.5-20,52.7-16,64.6.4,1.3,1.5,2.5,3.1,3.7h0Z"/>
    <path class="st12" d="M285.7,633c-12.7-16.3-35.2-41.3-54.8-38-.4,1.3,1.5,5.7,4.6,11.6,13.5,17,43.1,46.5,45.5,45.6,3.5-1.3,17.7-2.6,4.7-19.2Z"/>
    <path class="st12" d="M253.6,697.7c-3.9-11-5.6-22.8-13.1-27.9l-9.7,5.4s4.3,50.5,10.7,59.5c2.3,3.3,5.3,5.3,9.4,6.2,10.5-2.9,7.7-28.7,2.6-43.2Z"/>
    <g>
      <path class="st8" d="M328.8,532.8c15.4,3.7,45.3,10.5,50.3,4.6,5-5.8-8.5-59.8-11.9-59.3-3.4.5-31.1-4.6-35.2,6-4.1,10.6-3.2,48.7-3.2,48.7Z"/>
      <path class="st9" d="M538.2,438.9l29.2,161.1c.6,3.5-2.6,6.5-6.1,5.6l-196.6-51.7c-1.8-.5-3.2-2-3.6-3.8l-27.7-142c-.7-3.4,2.2-6.3,5.6-5.8l195.1,32.7c2,.3,3.6,1.9,4,4Z"/>
      <path class="st7" d="M670.8,521.6c-41.4-15.7-68.8-19.7-78.1-27.9s-6.4-13.5-20.1-19.9c-13.8-6.4-29.7-14-45-15.1-15.4-1.1-15.8,2.6-14.4,7,1.4,4.4,7.7,6.2,7.7,6.2,0,0-11.1-3.2-17.7-1.2-6.6,2-7.1,8.2-3.5,10.9,3.4,2.5,16.6,4.2,17.4,4.4.8.2-7.1-1.8-9.5,2.8-2.4,4.6-.6,9.5,5.6,10.7,6.2,1.2,21.6,7.5,21.6,7.5,0,0-9.9-5.8-13.7-1.6s-2.6,9.3,5.6,12.5c8.1,3.2,27.2,7.9,35.7,11.9,8.5,4,14.5,8.1,23.4,9.7s68.9,37.5,73.9,39.1c5,1.6,7.7-12.3,10.3-27.2,2.6-14.9,6.1-27.9.8-29.9Z"/>
      <path class="st7" d="M332.5,475c13.5-3.8,34.4-4.2,37.5,0,3.2,4.2,1,9-7.1,8.4s-11.6.8-11.6.8c0,0,11.4.3,14.8,3,4.4,3.5.5,7.9-8.1,9.3-7.2,1.2-11,2-11,2,0,0,14.5-.4,17.9,2.6s.2,8.1-9.7,10.9c-9.9,2.8-20.3,6.8-18.3,6.7s11.3-3.2,13.5,0c2.2,3.2-6.8,13.1-16.5,14.8-8.7,1.5-7.7-7-7.1-9.5.6-2.6-3.5-4.4-3.3-10.5.2-6.2,3.1-5.1.9-10.5-2.2-5.4-1.2-7.8.6-13.9,1.8-6.2-2.4-11.1,7.5-13.9Z"/>
    </g>
    <path class="st14" d="M78.9,591.2c-15.6,1.7-21.7,31.5-21.3,45.2.4,13.7,16.8,43.9,21.3,61.2,4.5,17.3,1.3,43.5,8.5,60.2s23.8,16.3,38.1,11.5c14.3-4.8,27.9-20.3,58.2-21.8s57.8-8.3,67.7-15.9,3.6-53-14.7-56.3-157.8-84.1-157.8-84.1Z"/>
    <path class="st0" d="M60.1,616.2c8.7,20.3,21.9,46.5,28.4,50.3,6.9,4.1,22.3-4.7,22.3-4.7l1.9-47.5s-3.9-3.8-9.2-9c-14.8-8.5-24.7-14.2-24.7-14.2-9.6,1.1-15.7,12.9-18.8,25Z"/>
    <path class="st14" d="M240.1,596.8c-28.2,17.4-57.8,33.6-64.7,34.1-6.9.5-13.8-13.2-20.7-39.2s-13.2-35.2-27.5-42.9-49.8,22.7-48.7,39.2,21.7,44,32.3,70.4,19.6,47.7,37.1,58.3,34.4,5.7,41.3-8.3c6.9-14,10.6-19.3,17.5-21.9,6.9-2.6,78.4-30.8,82.1-41.4,3.7-10.5-38.9-54.3-48.6-48.3Z"/>
    <path class="st0" d="M150.5,577.9c-5.6-15.8-11.9-23-23.4-29.1-14.3-7.7-49.8,22.7-48.7,39.2.5,8.1,5.7,18.7,12.1,30.5.8-5.3,17.1-24.5,25.8-32,8.7-7.5,18.7-13.9,34.2-8.6Z"/>
    <path class="st0" d="M177.5,666.8c-12-1.5-42.4,1.6-49.8,28.4,5.5,9.1,11.9,16.5,20.1,21.5,17.5,10.6,34.4,5.7,41.3-8.3,5.2-10.6,8.6-16.2,12.9-19.4-3.4-11.5-14.9-21-24.6-22.2Z"/>
    <path class="st12" d="M167.4,724.1c-7.2,0-15.5-2.8-23.6-8.2-12.2-8.2-21.3-26.7-30.1-44.6l-.6-1.3c-9.2-18.7-24.1-51.2-36.1-81.4-.3-.8,0-1.7.9-2,.8-.3,1.7,0,2,.9,11.9,30.2,26.8,62.6,36,81.2l.6,1.3c8.6,17.5,17.5,35.7,29,43.4,12.3,8.3,24.8,10,32.7,4.6,3.9-2.7,6.9-8.5,9.8-14.1,3.5-6.7,6.7-13.1,11.8-14.7,8.3-2.6,72.2-33.4,72.8-33.7.8-.4,1.7,0,2.1.7.4.8,0,1.7-.7,2.1-2.6,1.3-64.8,31.2-73.2,33.9-3.8,1.2-6.9,7.3-10,13.2-3.1,6-6.2,12.1-10.8,15.3-3.6,2.5-7.9,3.7-12.6,3.7Z"/>
    <path class="st0" d="M81.8,723.5c.7,12.2,1.4,24.8,5.5,34.2,7.1,16.7,23.8,16.3,38.1,11.5,5-1.7,9.8-4.6,15.4-7.8,2.4-7.3,2.1-16.6-2.2-23.8-6.5-10.8-32.7-29.1-56.7-14.2Z"/>
  </g>
</svg>