<?xml version="1.0" encoding="UTF-8"?>
<svg xmlns="http://www.w3.org/2000/svg" xmlns:xlink="http://www.w3.org/1999/xlink" xmlns:svgjs="http://svgjs.dev/svgjs" id="Icon_Set" height="300" viewBox="0 0 256 256" width="300" version="1.1">
  <g transform="matrix(1,0,0,1,0,0)">
    <g>
      <g>
        <g>
          <circle cx="67.057" cy="67.057" fill="#f9d335" r="60.943" fill-opacity="1" data-original-color="#f9d335ff" stroke="none" stroke-opacity="1"></circle>
          <path d="m71.329 127.852c-1.412.097-2.836.148-4.272.148-33.655 0-60.943-27.288-60.943-60.943s27.288-60.943 60.943-60.943c1.435 0 2.859.051 4.272.148-31.662 2.193-56.671 28.575-56.671 60.795s25.009 58.602 56.671 60.795z" fill="#f9e27d" fill-opacity="1" data-original-color="#f9e27dff" stroke="none" stroke-opacity="1"></path>
          <path d="m128 67.057c0 33.655-27.288 60.943-60.943 60.943-1.435 0-2.859-.051-4.272-.148 31.662-2.193 56.671-28.575 56.671-60.795s-25.009-58.602-56.671-60.795c1.412-.097 2.836-.148 4.272-.148 33.655 0 60.943 27.288 60.943 60.943z" fill="#f2c300" fill-opacity="1" data-original-color="#f2c300ff" stroke="none" stroke-opacity="1"></path>
        </g>
        <g>
          <circle cx="188.943" cy="67.057" fill="#ff4a73" r="60.943" fill-opacity="1" data-original-color="#ff4a73ff" stroke="none" stroke-opacity="1"></circle>
          <path d="m193.215 127.852c-1.412.097-2.836.148-4.272.148-33.655 0-60.943-27.288-60.943-60.943s27.288-60.943 60.943-60.943c1.435 0 2.859.051 4.272.148-31.662 2.193-56.671 28.575-56.671 60.795s25.009 58.602 56.671 60.795z" fill="#f973a3" fill-opacity="1" data-original-color="#f973a3ff" stroke="none" stroke-opacity="1"></path>
          <path d="m249.886 67.057c0 33.655-27.288 60.943-60.943 60.943-1.435 0-2.859-.051-4.272-.148 31.662-2.193 56.671-28.575 56.671-60.795s-25.009-58.602-56.671-60.795c1.413-.097 2.836-.148 4.272-.148 33.655 0 60.943 27.288 60.943 60.943z" fill="#ea2a6a" fill-opacity="1" data-original-color="#ea2a6aff" stroke="none" stroke-opacity="1"></path>
        </g>
      </g>
      <g>
        <g>
          <circle cx="67.057" cy="188.943" fill="#5fcdff" r="60.943" fill-opacity="1" data-original-color="#5fcdffff" stroke="none" stroke-opacity="1"></circle>
          <path d="m71.329 249.738c-1.412.097-2.836.148-4.272.148-33.655 0-60.943-27.288-60.943-60.943s27.288-60.943 60.943-60.943c1.435 0 2.859.051 4.272.148-31.662 2.193-56.671 28.575-56.671 60.795s25.009 58.602 56.671 60.795z" fill="#73d7f9" fill-opacity="1" data-original-color="#73d7f9ff" stroke="none" stroke-opacity="1"></path>
          <path d="m128 188.943c0 33.655-27.288 60.943-60.943 60.943-1.435 0-2.859-.051-4.272-.148 31.662-2.193 56.671-28.575 56.671-60.795s-25.009-58.602-56.671-60.795c1.412-.097 2.836-.148 4.272-.148 33.655 0 60.943 27.288 60.943 60.943z" fill="#30b6ff" fill-opacity="1" data-original-color="#30b6ffff" stroke="none" stroke-opacity="1"></path>
        </g>
        <g>
          <circle cx="188.943" cy="188.943" fill="#f9d335" r="60.943" fill-opacity="1" data-original-color="#f9d335ff" stroke="none" stroke-opacity="1"></circle>
          <path d="m193.215 249.738c-1.412.097-2.836.148-4.272.148-33.655 0-60.943-27.288-60.943-60.943s27.288-60.943 60.943-60.943c1.435 0 2.859.051 4.272.148-31.662 2.193-56.671 28.575-56.671 60.795s25.009 58.602 56.671 60.795z" fill="#f9e27d" fill-opacity="1" data-original-color="#f9e27dff" stroke="none" stroke-opacity="1"></path>
          <path d="m249.886 188.943c0 33.655-27.288 60.943-60.943 60.943-1.435 0-2.859-.051-4.272-.148 31.662-2.193 56.671-28.575 56.671-60.795s-25.009-58.602-56.671-60.795c1.413-.097 2.836-.148 4.272-.148 33.655 0 60.943 27.288 60.943 60.943z" fill="#f2c300" fill-opacity="1" data-original-color="#f2c300ff" stroke="none" stroke-opacity="1"></path>
        </g>
      </g>
    </g>
    <g fill="#5f266d">
      <path d="m92.046 71.698c0-2.209-1.791-4-4-4s-4 1.791-4 4c0 9.368-7.621 16.989-16.989 16.989-9.367 0-16.988-7.622-16.988-16.989 0-2.209-1.791-4-4-4s-4 1.791-4 4c0 13.779 11.21 24.989 24.988 24.989 13.779.001 24.989-11.209 24.989-24.989z" fill="#000000" fill-opacity="1" data-original-color="#5f266dff" stroke="none" stroke-opacity="1"></path>
      <circle cx="38.083" cy="53.084" r="5.057" fill="#000000" fill-opacity="1" data-original-color="#5f266dff" stroke="none" stroke-opacity="1"></circle>
      <circle cx="96.031" cy="53.084" r="5.057" fill="#000000" fill-opacity="1" data-original-color="#5f266dff" stroke="none" stroke-opacity="1"></circle>
      <path d="m150.034 71.368c1.106 1.916 3.553 2.567 5.464 1.464l21.597-12.469c2.666-1.539 2.66-5.391 0-6.928l-21.597-12.468c-1.914-1.105-4.36-.449-5.464 1.464s-.449 4.359 1.464 5.464l15.597 9.005-15.597 9.005c-1.913 1.104-2.568 3.55-1.464 5.463z" fill="#000000" fill-opacity="1" data-original-color="#5f266dff" stroke="none" stroke-opacity="1"></path>
      <path d="m227.852 42.43c-1.105-1.913-3.551-2.569-5.464-1.464l-21.597 12.469c-2.661 1.536-2.665 5.389 0 6.928l21.597 12.469c1.912 1.104 4.36.45 5.464-1.464 1.104-1.913.449-4.359-1.464-5.464l-15.597-9.005 15.597-9.005c1.913-1.105 2.568-3.551 1.464-5.464z" fill="#000000" fill-opacity="1" data-original-color="#5f266dff" stroke="none" stroke-opacity="1"></path>
      <path d="m163.954 92.688c0 2.209 1.791 4 4 4s4-1.791 4-4c0-9.368 7.621-16.989 16.989-16.989 9.367 0 16.988 7.622 16.988 16.989 0 2.209 1.791 4 4 4s4-1.791 4-4c0-13.779-11.21-24.989-24.988-24.989-13.779-.001-24.989 11.209-24.989 24.989z" fill="#000000" fill-opacity="1" data-original-color="#5f266dff" stroke="none" stroke-opacity="1"></path>
      <path d="m221.238 36.132c1.362 1.74 3.877 2.045 5.615.684 1.739-1.362 2.046-3.876.684-5.615-1.157-1.479-2.516-2.907-4.037-4.246-1.66-1.459-4.188-1.296-5.646.361-1.459 1.659-1.298 4.186.36 5.646 1.153 1.013 2.171 2.08 3.024 3.17z" fill="#000000" fill-opacity="1" data-original-color="#5f266dff" stroke="none" stroke-opacity="1"></path>
      <path d="m196.73 23.009c.044.008 4.454.875 9.765 3.037 2.054.834 4.383-.158 5.213-2.197.833-2.046-.151-4.38-2.197-5.213-6.085-2.477-11.064-3.444-11.273-3.483-2.167-.418-4.26 1.007-4.677 3.174-.417 2.166 1.002 4.262 3.169 4.682z" fill="#000000" fill-opacity="1" data-original-color="#5f266dff" stroke="none" stroke-opacity="1"></path>
      <circle cx="38.083" cy="174.97" r="5.057" fill="#000000" fill-opacity="1" data-original-color="#5f266dff" stroke="none" stroke-opacity="1"></circle>
      <circle cx="96.031" cy="174.97" r="5.057" fill="#000000" fill-opacity="1" data-original-color="#5f266dff" stroke="none" stroke-opacity="1"></circle>
      <path d="m88.046 193.92h-41.978c-2.209 0-4 1.791-4 4s1.791 4 4 4h41.978c2.209 0 4-1.791 4-4s-1.791-4-4-4z" fill="#000000" fill-opacity="1" data-original-color="#5f266dff" stroke="none" stroke-opacity="1"></path>
      <path d="m211.384 128c24.784-9.155 42.502-33.017 42.502-60.943 0-35.81-29.133-64.943-64.942-64.943-27.926 0-51.788 17.719-60.943 42.503-9.156-24.784-33.019-42.503-60.944-42.503-35.81 0-64.942 29.133-64.942 64.943 0 27.925 17.718 51.788 42.502 60.943-24.784 9.155-42.502 33.017-42.502 60.943 0 35.81 29.133 64.943 64.942 64.943 27.925 0 51.788-17.719 60.943-42.503 9.155 24.784 33.018 42.503 60.943 42.503 35.81 0 64.942-29.133 64.942-64.943.001-27.926-17.718-51.788-42.501-60.943zm-22.441-117.886c31.398 0 56.942 25.544 56.942 56.943s-25.543 56.943-56.942 56.943-56.943-25.544-56.943-56.943 25.545-56.943 56.943-56.943zm-178.829 56.943c0-31.398 25.544-56.943 56.942-56.943s56.944 25.545 56.944 56.943-25.545 56.943-56.943 56.943-56.943-25.544-56.943-56.943zm56.943 178.829c-31.398 0-56.942-25.544-56.942-56.943s25.543-56.943 56.942-56.943 56.943 25.544 56.943 56.943-25.545 56.943-56.943 56.943zm22.44-117.886c17.787-6.57 31.932-20.716 38.503-38.503 6.57 17.787 20.716 31.932 38.503 38.503-17.787 6.57-31.932 20.716-38.503 38.503-6.57-17.787-20.716-31.933-38.503-38.503zm99.446 117.886c-31.398 0-56.943-25.544-56.943-56.943s25.545-56.943 56.943-56.943 56.942 25.544 56.942 56.943-25.543 56.943-56.942 56.943z" fill="#000000" fill-opacity="1" data-original-color="#5f266dff" stroke="none" stroke-opacity="1"></path>
      <path d="m188.943 189.584c-13.779 0-24.989 11.21-24.989 24.989 0 2.209 1.791 4 4 4s4-1.791 4-4c0-9.368 7.621-16.989 16.989-16.989 9.367 0 16.988 7.622 16.988 16.989 0 2.209 1.791 4 4 4s4-1.791 4-4c.001-13.779-11.209-24.989-24.988-24.989z" fill="#000000" fill-opacity="1" data-original-color="#5f266dff" stroke="none" stroke-opacity="1"></path>
      <path d="m177.853 171.42c0-2.209-1.791-4-4-4h-17.502c-2.209 0-4 1.791-4 4s1.791 4 4 4h17.502c2.209 0 4-1.791 4-4z" fill="#000000" fill-opacity="1" data-original-color="#5f266dff" stroke="none" stroke-opacity="1"></path>
      <path d="m221.535 167.42h-17.502c-2.209 0-4 1.791-4 4s1.791 4 4 4h17.502c2.209 0 4-1.791 4-4s-1.791-4-4-4z" fill="#000000" fill-opacity="1" data-original-color="#5f266dff" stroke="none" stroke-opacity="1"></path>
    </g>
  </g>
</svg>
