<svg id="Layer_1" enable-background="new 0 0 512 512" viewBox="0 0 512 512" xmlns="http://www.w3.org/2000/svg"><g id="Layer_2_00000136396451950693936400000006123331509178753437_"><g id="Layer_1_copy_7"><g id="_92"><path d="m86.7 485.3c-47.8 0-86.5-38.8-86.5-86.6 0-15.5 4.2-30.8 12.1-44.1l169.3-285.5c24.4-41.1 77.4-54.6 118.6-30.2 12.5 7.4 22.9 17.8 30.3 30.3l169.3 285.4c24.4 41.1 10.8 94.2-30.3 118.6-13.4 7.9-28.6 12.1-44.1 12.1zm169.3-135.8c-15.6 0-28.3 12.7-28.3 28.3s12.7 28.3 28.3 28.3 28.3-12.7 28.3-28.3c0-15.7-12.7-28.3-28.3-28.3zm0-197.5c-16.2 0-29.3 13.1-29.3 29.3v1.3l4.5 105c.6 13.7 12.1 24.4 25.8 23.8 12.9-.5 23.3-10.9 23.8-23.8l4.5-105c.7-16.2-11.9-29.9-28.1-30.6-.4 0-.8 0-1.2 0z"/><path d="m492.9 358.6-169.4-285.4c-30.4-51.3-104.7-51.3-135.1 0l-169.3 285.4c-31.1 52.4 6.7 118.6 67.6 118.6h338.7c60.8.1 98.6-66.2 67.5-118.6zm-236.9 55.5c-20.1 0-36.3-16.3-36.3-36.3 0-20.1 16.3-36.3 36.3-36.3s36.3 16.2 36.3 36.3c0 20-16.2 36.3-36.3 36.3zm37.3-231.2-4.5 105c-.8 18.1-16.1 32.2-34.2 31.4-17-.7-30.7-14.4-31.4-31.4l-4.5-105c-.8-20.6 15.2-38 35.8-38.8s38 15.2 38.8 35.8z" fill="#fd4760"/></g></g></g></svg>