<svg id="Layer_1" enable-background="new 0 0 512 512" viewBox="0 0 512 512" xmlns="http://www.w3.org/2000/svg"><g id="Layer_2_00000145759820103671042270000017720979052842416788_"><g id="Layer_1_copy_7"><g id="_37"><path d="m453.7 467.6c-10.7 0-21.1-3-30.2-8.6l-251.1-153.4c-27.4-16.8-36.1-52.6-19.3-80 4.8-7.9 11.4-14.5 19.3-19.3l251.1-153.3c27.3-16.8 63.1-8.3 79.9 19 5.7 9.2 8.6 19.8 8.6 30.6v306.8c0 32.1-26.1 58.2-58.3 58.2z"/><path d="m176.6 213.2 251.1-153.4c33.4-20.4 76.3 3.6 76.3 42.8v306.8c0 39.2-42.9 63.2-76.3 42.8l-251.1-153.4c-32-19.6-32-66 0-85.6z" fill="#fd4760"/><path d="m57.2 465.4c-31.6-.1-57.2-25.7-57.2-57.2v-305.8c0-31.6 25.6-57.2 57.2-57.2s57.2 25.6 57.2 57.2v305.8c-.1 31.5-25.6 57.1-57.2 57.2z"/><path d="m57.2 53.1c27.2 0 49.2 22 49.2 49.2v305.8c0 27.2-22 49.2-49.2 49.2-27.2 0-49.2-22-49.2-49.1v-305.9c0-27.2 22-49.2 49.2-49.2z" fill="#fd4760"/></g></g></g></svg>