<svg id="Layer_1" enable-background="new 0 0 512 512" viewBox="0 0 512 512" xmlns="http://www.w3.org/2000/svg"><g id="Layer_2_00000179629296810024017270000010293820936015667094_"><g id="Layer_1_copy_7"><g id="_33"><path d="m471.1 397.4c-7.5 0-14.8-2.1-21.2-6l-164.6-100.5c-19.3-11.8-25.3-36.9-13.6-56.2 3.4-5.5 8-10.2 13.6-13.6l164.5-100.6c19.2-11.8 44.3-5.8 56.1 13.4 4 6.5 6.1 13.9 6 21.5v201c.1 22.7-18.2 41-40.8 41z"/><path d="m289.5 228 164.5-100.5c21.9-13.4 50 2.4 50 28v201c0 25.7-28.1 41.4-50 28l-164.5-100.5c-15.5-9.5-20.4-29.7-10.9-45.2 2.7-4.4 6.5-8.1 10.9-10.8z" fill="#fd4760"/><path d="m205.3 397.4c-7.5 0-14.8-2.1-21.2-6l-164.5-100.5c-19.3-11.8-25.4-36.9-13.6-56.2 3.4-5.5 8-10.2 13.6-13.6l164.5-100.5c19.2-11.8 44.3-5.8 56.1 13.4 4 6.5 6.1 13.9 6 21.5v201c0 22.6-18.3 40.9-40.9 40.9z"/><path d="m23.7 228 164.5-100.5c21.9-13.4 50 2.4 50 28v201c0 25.7-28.1 41.4-50 28l-164.5-100.5c-15.5-9.5-20.4-29.7-10.9-45.2 2.7-4.4 6.5-8.1 10.9-10.8z" fill="#fd4760"/></g></g></g></svg>