<svg id="Layer_1" enable-background="new 0 0 512 512" viewBox="0 0 512 512" xmlns="http://www.w3.org/2000/svg"><g id="Layer_2_00000024716075999206004140000009943795735931368607_"><g id="Layer_1_copy_7"><g id="_71"><path d="m412.5 512c-7.6 0-15-2.4-21.2-6.9l-135.3-96.5-135.4 96.6c-6.2 4.5-13.6 6.9-21.2 6.9-9.5 0-18.6-3.7-25.5-10.2-7.3-6.9-11.4-16.5-11.3-26.5v-426c.1-27.3 22.1-49.4 49.3-49.4h288.1c27.2 0 49.3 22.1 49.3 49.3v426c0 20.3-16.5 36.7-36.8 36.7z"/><path d="m396 498.6-140-99.9-140 99.9c-19 13.6-45.4 0-45.4-23.4v-426c0-22.8 18.5-41.2 41.3-41.2h288.1c22.8 0 41.3 18.5 41.3 41.3v426c.1 23.3-26.3 36.9-45.3 23.3z" fill="#7584f2"/></g></g></g></svg>