<svg id="Layer_1" enable-background="new 0 0 512 512" viewBox="0 0 512 512" xmlns="http://www.w3.org/2000/svg"><g id="Layer_2_00000176721626118975368500000002742242548158857912_"><g id="Layer_1_copy_7"><g id="_47"><path d="m256 512c-141.4 0-256-114.7-256-256 0-67.9 27-133 75-181 101.4-98.5 263.5-96.1 362 5.3 96.5 99.3 96.5 257.4 0 356.7-47.9 48.2-113.1 75.2-181 75zm0-401.8c-15.1 0-27.4 12.3-27.4 27.4v118.4c0 7.3 2.8 14.3 8 19.4l99.2 99.2c10.5 10.9 27.9 11.2 38.8.7s11.2-27.9.7-38.8c-.2-.2-.5-.5-.7-.7l-91.2-91.2v-107c0-15.1-12.3-27.4-27.4-27.4z"/><path d="m256 8c-137 0-248 111-248 248s111 248 248 248 248-111 248-248-111-248-248-248zm124.2 372.2c-13.8 13.8-36.3 13.8-50.1 0l-99.1-99.2c-6.7-6.6-10.4-15.6-10.4-25v-118.4c0-19.6 15.9-35.4 35.5-35.4 19.5 0 35.4 15.9 35.4 35.4v103.7l88.8 88.8c13.8 13.9 13.8 36.3-.1 50.1.1 0 .1 0 0 0z" fill="#fe8205"/></g></g></g></svg>