<svg id="Layer_1" enable-background="new 0 0 512 512" viewBox="0 0 512 512" xmlns="http://www.w3.org/2000/svg"><g id="Layer_2_00000178918774155137945000000009131914625178872241_"><g id="Layer_1_copy_7"><g id="_72"><path d="m65.4 512c-27.8 0-50.3-22.6-50.4-50.4v-198.7c0-27.8 22.5-50.4 50.4-50.4s50.4 22.5 50.4 50.4v148.4h280.5v-148.4c0-27.8 22.5-50.4 50.4-50.4s50.4 22.5 50.4 50.4v198.7c0 27.8-22.6 50.3-50.4 50.4z"/><path d="m489 461.6v-198.7c0-23.4-19-42.4-42.4-42.4s-42.4 19-42.4 42.4v156.4h-296.5v-156.4c0-23.4-19-42.4-42.4-42.4s-42.3 19-42.3 42.4v198.7c0 23.4 19 42.4 42.4 42.4h381.2c23.4 0 42.4-18.9 42.4-42.4 0 .1 0 .1 0 0z" fill="#fd4760"/><path d="m256 351.3c-13.4 0-26.2-5.3-35.6-14.8l-73.3-73.3c-19.7-19.7-19.6-51.6.1-71.2 15.5-15.5 39.3-19.2 58.8-9.1v-132.5c.4-27.8 23.3-50 51.1-49.7 27.3.4 49.3 22.4 49.7 49.7v132.1c24.8-12.7 55.1-2.9 67.8 21.9 10 19.5 6.2 43.1-9.3 58.6l-73.5 73.5c-9.6 9.5-22.4 14.8-35.8 14.8z"/><path d="m359.5 257.3-73.5 73.6c-16.5 16.5-43.4 16.5-59.9 0l-73.3-73.3c-16.5-16.5-16.5-43.4 0-59.9s43.4-16.5 59.9 0l1.3 1.3v-148.6c.4-23.4 19.6-42.1 43-41.7 22.9.4 41.4 18.8 41.7 41.7v148l1-1c16.4-16.6 43.3-16.8 59.9-.4s16.8 43.3.4 59.9c-.2.1-.3.2-.5.4z" fill="#fd4760"/></g></g></g></svg>