<svg id="Layer_1" enable-background="new 0 0 512 512" viewBox="0 0 512 512" xmlns="http://www.w3.org/2000/svg"><g id="Layer_2_00000032628356208238799020000006681219785631107726_"><g id="Layer_1_copy_7"><g id="_40"><path d="m256 512c-141.4 0-256-114.7-256-256 0-67.9 27-133 75-181 101.4-98.5 263.5-96.1 362 5.3 96.5 99.3 96.5 257.4 0 356.7-47.9 48.2-113.1 75.2-181 75zm-120.2-228.5c-6.4 0-12.5 2.9-16.4 7.9-3.9 4.8-5.3 11.1-3.9 17.2 18.3 77.6 96.1 125.7 173.7 107.4 53.2-12.6 94.8-54.1 107.4-107.4 1.4-6 0-12.3-3.9-17.2-4-5-10-8-16.4-7.9zm199.9-139.1c-13.7 0-24.8 11.1-24.8 24.8s11.1 24.8 24.8 24.8 24.8-11.1 24.8-24.8-11.1-24.8-24.8-24.8zm-159.4 0c-13.7 0-24.8 11.1-24.8 24.8s11.1 24.8 24.8 24.8 24.8-11.1 24.8-24.8c-.1-13.7-11.1-24.8-24.8-24.8z"/><path d="m256 8c-137 0-248 111-248 248s111 248 248 248 248-111 248-248-111-248-248-248zm79.7 128.4c18.1 0 32.8 14.7 32.8 32.8s-14.7 32.8-32.8 32.8-32.8-14.7-32.8-32.8c0-18.1 14.7-32.8 32.8-32.8zm-159.4 0c18.1 0 32.8 14.7 32.8 32.8s-14.7 32.8-32.8 32.8-32.8-14.7-32.8-32.8 14.7-32.8 32.8-32.8zm228 174c-19.3 81.9-101.4 132.7-183.3 113.4-56.2-13.3-100.1-57.1-113.3-113.3-4.2-17.9 9.7-34.9 28.1-34.9h240.5c18.3-.1 32.2 16.9 28 34.8z" fill="#fe8205"/></g></g></g></svg>