<svg id="Layer_1" enable-background="new 0 0 512 512" viewBox="0 0 512 512" xmlns="http://www.w3.org/2000/svg"><g id="Layer_2_00000167372910407498425240000004201208035803367579_"><g id="Layer_1_copy_7"><g id="_84"><path d="m255.6 480.9c-8 .1-15.7-3.4-21-9.4-27.5-31-60-57.9-91.5-83.9-16.5-13.6-33.6-27.8-49.8-42.4-26.4-23.7-53.3-50.5-71.6-85.5-25.4-48.7-28.5-97.1-9-143.9 18.8-45.5 55.1-73.3 107.7-82.4 7.6-1.3 15.3-2 23-2 33.4 0 65.4 13.2 98.1 40.4 5.2 4.2 10.1 8.8 14.8 13.6 22.2-22.3 43.4-36.6 66.7-45.3 15.7-5.9 32.3-9.1 49.1-9.2 27.6 0 54.6 8.8 80.3 26.2 19.6 13.1 35.3 31.3 45.4 52.6 9.8 21 14.6 45.5 14.3 72.9-.1 38.1-15.5 76.5-45.8 114-22.2 27.6-49.2 50.6-75.2 72.8l-7.8 6.6c-25.3 21.7-50.6 44.3-75.1 66.2-5.7 5.1-11.3 10.1-17 15.2-2.4 2.2-4.6 4.6-6.7 7.1-1.9 2.2-3.8 4.4-6 6.5-6.2 6.3-14.3 9.8-22.9 9.9z"/><path d="m504 182.7c-.1 38.9-17.2 75.9-44.1 109.1-23.9 29.7-53.2 53.7-82 78.4-31.1 26.7-61.6 54.2-92.2 81.5-4.7 4.2-8.5 9.5-13 13.9-9.2 9.1-23.8 10.1-32.2.6-42.4-47.9-94.8-84.5-141.9-126.9-27.2-24.4-52.7-50.4-69.8-83.2-23.3-44.4-28.2-90.4-8.8-137.2 18.7-45.1 54.3-69.3 101.8-77.6 44.8-7.8 81.4 9 114.6 36.7 5.1 4.2 10 8.6 14.5 13.4 3.9 4.2 6.4 4.3 10.6.2 18.5-18.7 39.3-34.6 64.2-43.9 43.4-16.1 84.7-9.2 122.2 16.1 38 25.8 56.8 66.5 56.1 118.9z" fill="#fd4760"/></g></g></g></svg>