<svg id="Layer_1" enable-background="new 0 0 512 512" viewBox="0 0 512 512" xmlns="http://www.w3.org/2000/svg"><g id="Layer_2_00000149341735171479725810000003150092431164721574_"><g id="Layer_1_copy_7"><g id="_14"><path d="m367.1 512c-25.9 0-47-21.1-47-47v-91.3c0-35.4-28.7-64.1-64.1-64.1s-64 28.7-64 64.1v91.3c-.1 26-21.1 47-47.1 47h-82.4c-26.1 0-47.3-21.2-47.3-47.3v-264.3c.1-18.5 8.6-35.9 23.2-47.2l182.2-141.1c20.9-16.1 50-16.1 70.8 0l182.3 141.1c14.6 11.3 23.1 28.7 23.2 47.2v264.3c0 26.1-21.2 47.3-47.3 47.3z"/><path d="m468.8 159.5-182.3-141.1c-18-13.9-43.1-13.9-61.1 0l-182.2 141.1c-12.6 9.8-20 24.9-20 40.9v264.3c0 21.7 17.6 39.3 39.3 39.3h82.4c21.5 0 39-17.4 39-38.9 0 0 0 0 0-.1v-91.3c0-39.8 32.3-72.1 72.1-72.1 39.8 0 72.1 32.2 72.1 72v91.4c0 21.5 17.5 39 39 39h82.4c21.7 0 39.3-17.6 39.3-39.3v-264.3c.1-16-7.3-31.1-20-40.9z" fill="#7584f2"/></g></g></g></svg>