<svg id="Layer_1" enable-background="new 0 0 512 512" viewBox="0 0 512 512" xmlns="http://www.w3.org/2000/svg"><g id="Layer_2_00000018203472746564950380000010616428369259138959_"><g id="Layer_1_copy_7"><g id="_69"><path d="m173.7 512c-27.9 0-50.4-22.6-50.4-50.5 0-27.8 22.6-50.4 50.4-50.4h32.2v-174.2h-33c-27.9 0-50.4-22.6-50.4-50.4s22.6-50.4 50.4-50.4h83.4c27.8 0 50.4 22.6 50.4 50.4v224.6h32.3c27.9 0 50.4 22.6 50.5 50.4 0 27.9-22.6 50.4-50.4 50.5 0 0 0 0-.1 0z"/><path d="m339 419.1h-40.2v-232.6c0-23.4-19-42.4-42.4-42.4h-83.4c-23.4 0-42.4 19-42.4 42.4 0 23.4 19 42.4 42.4 42.4h41v190.2h-40.3c-23.4 0-42.4 19-42.4 42.4 0 23.4 19 42.4 42.4 42.4h165.3c23.4 0 42.4-19 42.4-42.4.1-23.4-18.9-42.4-42.4-42.4z" fill="#fd4760"/><path d="m230 121.3c-33.5 0-60.7-27.2-60.7-60.7s27.2-60.6 60.7-60.6 60.7 27.2 60.7 60.7-27.2 60.6-60.7 60.6z"/><circle cx="230" cy="60.7" fill="#fd4760" r="52.7"/></g></g></g></svg>