<svg id="Layer_1" enable-background="new 0 0 512 512" viewBox="0 0 512 512" xmlns="http://www.w3.org/2000/svg"><g id="Layer_2_00000055684129427417023220000010003848030403590282_"><g id="Layer_1_copy_7"><g id="_91"><path d="m135.4 512c-45.7 0-82.8-37.1-82.8-82.8v-153.6c0-40.3 29.1-74.8 68.8-81.6v-59.4c0-74.2 60.4-134.6 134.6-134.6s134.6 60.4 134.6 134.6v59.4c39.8 6.8 68.8 41.3 68.8 81.6v153.5c0 45.7-37.1 82.8-82.8 82.8h-241.2zm169.1-319.2v-58.2c0-26.8-21.7-48.5-48.5-48.5s-48.5 21.7-48.5 48.5v58.2z"/><path d="m382.6 201.1v-66.4c0-70-56.7-126.7-126.6-126.7s-126.6 56.7-126.6 126.6v66.4c-38.9 3.1-68.8 35.6-68.8 74.6v153.5c0 41.3 33.5 74.8 74.8 74.8h241.2c41.3 0 74.8-33.5 74.8-74.8v-153.5c0-39-29.9-71.4-68.8-74.5zm-126.6-123c31.2 0 56.5 25.3 56.5 56.5v66.2h-113v-66.2c0-31.2 25.3-56.5 56.5-56.5z" fill="#fd4760"/></g></g></g></svg>