<svg id="Layer_1" enable-background="new 0 0 512 512" viewBox="0 0 512 512" xmlns="http://www.w3.org/2000/svg"><g id="Layer_2_00000049194305142058248320000015498116871512931517_"><g id="Layer_1_copy_7"><g id="_75"><path d="m262.9 497c-27.8 0-50.4-22.5-50.4-50.4 0-27.8 22.5-50.4 50.4-50.4h148.4v-280.5h-148.4c-27.8 0-50.4-22.5-50.4-50.4s22.6-50.3 50.4-50.3h198.7c27.8 0 50.3 22.6 50.4 50.4v381.2c0 27.8-22.5 50.4-50.4 50.4z"/><path d="m461.6 23h-198.7c-23.4 0-42.4 19-42.4 42.4s19 42.4 42.4 42.4h156.4v296.5h-156.4c-23.4 0-42.4 19-42.4 42.4s19 42.4 42.4 42.4h198.7c23.4 0 42.4-19 42.4-42.4v-381.3c0-23.4-19-42.4-42.4-42.4z" fill="#fe8205"/><path d="m227.4 379.7c-27.8 0-50.4-22.5-50.4-50.4 0-8 1.9-15.8 5.5-22.9h-132.1c-27.9 0-50.4-22.6-50.4-50.4s22.5-50.4 50.4-50.4h132.5c-12.8-24.7-3.2-55.1 21.5-67.9 19.5-10.1 43.3-6.5 58.9 9.1l73.3 73.3c19.6 19.7 19.6 51.5 0 71.2l-73.6 73.6c-9.4 9.5-22.3 14.8-35.6 14.8z"/><path d="m257.3 359.2 73.6-73.5c16.5-16.5 16.5-43.4 0-59.9l-73.3-73.3c-16.5-16.5-43.4-16.5-59.9 0s-16.5 43.4 0 59.9l1.3 1.3h-148.6c-23.4 0-42.4 18.9-42.4 42.3s19 42.3 42.3 42.3h148l-1 1c-16.5 16.5-16.5 43.4 0 59.9s43.4 16.6 60 0z" fill="#fe8205"/></g></g></g></svg>