<svg id="Layer_1" enable-background="new 0 0 512 512" viewBox="0 0 512 512" xmlns="http://www.w3.org/2000/svg"><g id="Layer_2_00000013880820880151002450000016065950886577587099_"><g id="Layer_1_copy_7"><g id="_74"><path d="m262.9 497c-27.8 0-50.4-22.5-50.4-50.4 0-27.8 22.5-50.4 50.4-50.4h148.4v-280.5h-148.4c-27.8 0-50.4-22.5-50.4-50.4s22.6-50.3 50.4-50.3h198.7c27.8 0 50.3 22.6 50.4 50.4v381.2c0 27.8-22.6 50.4-50.4 50.4z"/><path d="m461.6 23h-198.7c-23.4 0-42.4 19-42.4 42.4s19 42.4 42.4 42.4h156.4v296.5h-156.4c-23.4 0-42.4 19-42.4 42.4s19 42.4 42.4 42.4h198.7c23.4-.1 42.4-19.1 42.4-42.5v-381.2c0-23.4-19-42.4-42.4-42.4z" fill="#fe8205"/><path d="m123.9 379.7c-13.4 0-26.2-5.3-35.6-14.8l-73.6-73.6c-19.6-19.7-19.6-51.5 0-71.2l73.3-73.3c19.7-19.7 51.6-19.6 71.2 0 15.5 15.5 19.2 39.3 9.1 58.8h132.5c27.8 0 50.4 22.5 50.4 50.4s-22.5 50.4-50.4 50.4h-132c12.6 24.8 2.8 55.1-22 67.8-7.1 3.6-14.9 5.4-22.9 5.5z"/><path d="m93.9 359.2-73.6-73.5c-16.5-16.5-16.5-43.4 0-59.9l73.3-73.3c16.4-16.6 43.3-16.8 59.9-.4s16.8 43.3.4 59.9c-.1.1-.2.2-.4.4l-1.3 1.3h148.6c23.4 0 42.4 19 42.4 42.4s-19 42.4-42.4 42.4h-148l1 1c16.6 16.4 16.8 43.3.4 59.9s-43.3 16.8-59.9.4c-.1-.3-.2-.4-.4-.6z" fill="#fe8205"/></g></g></g></svg>