<svg id="Layer_1" enable-background="new 0 0 512 512" viewBox="0 0 512 512" xmlns="http://www.w3.org/2000/svg"><g id="Layer_2_00000129207663891028016630000016373231718399272323_"><g id="Layer_1_copy_7"><g id="_78"><path d="m83 137.8c-38 .5-69.3-30-69.7-68.1-.5-38 30-69.3 68.1-69.7h1.7 346c38-.5 69.3 30 69.7 68.1.5 38-30 69.3-68.1 69.7-.6 0-1.1 0-1.7 0z"/><path d="m83 8h346c33.6 0 60.9 27.3 60.9 60.9 0 33.6-27.3 60.9-60.9 60.9h-346c-33.6 0-60.9-27.3-60.9-60.9 0-33.6 27.3-60.9 60.9-60.9z" fill="#7584f2"/><path d="m83 324.9c-38.1 0-68.9-30.8-68.9-68.9s30.8-68.9 68.9-68.9h346c38.1 0 68.9 30.9 68.9 68.9s-30.8 68.9-68.9 68.9z"/><path d="m83 195.1h346c33.6 0 60.9 27.3 60.9 60.9 0 33.6-27.3 60.9-60.9 60.9h-346c-33.6 0-60.9-27.3-60.9-60.9 0-33.6 27.3-60.9 60.9-60.9z" fill="#7584f2"/><path d="m83 512c-38 .5-69.3-30-69.7-68.1-.5-38 30-69.3 68.1-69.7h1.7 346c38-.5 69.3 30 69.7 68.1s-30 69.3-68.1 69.7c-.6 0-1.1 0-1.7 0z"/><path d="m83 382.2h346c33.6 0 60.9 27.3 60.9 60.9 0 33.6-27.3 60.9-60.9 60.9h-346c-33.6 0-60.9-27.3-60.9-60.9 0-33.6 27.3-60.9 60.9-60.9z" fill="#7584f2"/></g></g></g></svg>