<svg id="Layer_1" enable-background="new 0 0 512 512" viewBox="0 0 512 512" xmlns="http://www.w3.org/2000/svg"><g id="Layer_2_00000123424269268963712130000009244728361823931055_"><g id="Layer_1_copy_7"><g id="_21"><circle cx="78.9" cy="101.2" r="78.9"/><path d="m78.9 30.2c39.2 0 70.9 31.8 70.9 70.9 0 39.2-31.8 70.9-70.9 70.9-39.1.1-70.9-31.7-70.9-70.8 0-39.2 31.8-71 70.9-71z" fill="#1dd882"/><path d="m223.4 144c-23.7.4-43.1-18.5-43.5-42.2s18.5-43.1 42.2-43.5h1.3 245.8c23.7-.4 43.1 18.5 43.5 42.2s-18.5 43.1-42.2 43.5c-.4 0-.9 0-1.3 0z"/><path d="m223.4 66.3h245.8c19.2 0 34.8 15.6 34.8 34.8 0 19.2-15.6 34.8-34.8 34.8h-245.8c-19.2 0-34.8-15.6-34.8-34.8 0-19.2 15.6-34.8 34.8-34.8z" fill="#1dd882"/><circle cx="433.1" cy="256" r="78.9"/><path d="m433.1 185.1c39.2 0 70.9 31.8 70.9 70.9 0 39.2-31.8 70.9-70.9 70.9-39.2 0-70.9-31.8-70.9-70.9-.1-39.2 31.7-70.9 70.9-70.9z" fill="#1dd882"/><path d="m42.8 298.8c-23.7.4-43.1-18.5-43.5-42.2-.3-23.6 18.6-43.1 42.2-43.4h1.3 245.8c23.7-.4 43.1 18.5 43.5 42.2s-18.5 43.1-42.2 43.5c-.4 0-.9 0-1.3 0h-245.8z"/><path d="m42.8 221.2h245.8c19.2 0 34.8 15.6 34.8 34.8 0 19.2-15.6 34.8-34.8 34.8h-245.8c-19.2 0-34.8-15.6-34.8-34.8 0-19.2 15.6-34.8 34.8-34.8z" fill="#1dd882"/><circle cx="78.9" cy="410.8" r="78.9"/><path d="m78.9 339.9c39.2 0 70.9 31.8 70.9 70.9 0 39.2-31.8 70.9-70.9 70.9-39.1.1-70.9-31.7-70.9-70.9 0-39.1 31.8-70.9 70.9-70.9z" fill="#1dd882"/><path d="m223.4 453.7c-23.7.4-43.1-18.5-43.5-42.2s18.5-43.1 42.2-43.5h1.3 245.8c23.7-.4 43.1 18.5 43.5 42.2s-18.5 43.1-42.2 43.5c-.4 0-.9 0-1.3 0z"/><path d="m223.4 376h245.8c19.2 0 34.8 15.6 34.8 34.8 0 19.2-15.6 34.8-34.8 34.8h-245.8c-19.2 0-34.8-15.6-34.8-34.8 0-19.2 15.6-34.8 34.8-34.8z" fill="#1dd882"/></g></g></g></svg>