<svg id="Layer_1" enable-background="new 0 0 512 512" viewBox="0 0 512 512" xmlns="http://www.w3.org/2000/svg"><g id="Layer_2_00000150805064142125578630000009664968562098636424_"><g id="Layer_1_copy_7"><g id="_26"><path d="m209.7 440.4c-9.3 0-18.3-3.2-25.4-9.2-29.9-24.1-62-50-94.7-75.6-3-2.1-6.5-3.2-10.2-3.4-5.5-.2-11.4-.3-19.1-.3-3.5 0-7 0-10.5 0s-7.1 0-10.6 0h-7.4c-19.8-.2-31.7-12.2-31.7-32.2-.1-40.5-.1-83.2 0-127 0-20.2 12.1-32.4 32.4-32.5h7.5 10.4 10.4c8.2 0 14.4-.1 20.2-.3 2.8-.1 5.5-1.1 7.8-2.7 30.6-24.1 62.5-49.5 94.6-75.6 7.6-6.5 17.3-10 27.3-9.9h1.4c3.3.1 8.7.1 16.9.1h16.6 15.1c4.9 0 8.3 0 10.8.1 19.6.3 31.9 12.7 31.9 32.3.1 36 0 72.5 0 107.9v82.1 111.1c0 23.2-11.8 35-35.1 35.1h-2.8-13.6-20.6c-10 0-16.7 0-20.5.1z"/><path d="m271.3 79.8c-12.1-.2-47.3.2-59.4-.1-8.6-.4-16.9 2.5-23.5 8.1-31.4 25.4-63 50.7-94.7 75.7-3.6 2.7-8 4.2-12.5 4.4-16.2.5-32.5.1-48.7.2-15.9.1-24.4 8.6-24.4 24.5-.1 42.4-.1 84.7 0 127.1 0 15.5 8.5 24.1 23.8 24.3 16 .2 31.9-.4 47.9.3 5.3.2 10.4 2 14.8 5.1 31.8 24.9 63.3 50.2 94.8 75.6 5.9 5 13.5 7.7 21.2 7.4 11.5-.2 46.2 0 57.8-.1 19 0 27.1-8.1 27.1-27.1 0-49.8 0-99.5 0-149.3 0-50.6 0-101.2 0-151.8-.2-15.3-8.9-24.1-24.2-24.3z" fill="#fe8205"/><path d="m468.4 339.8c-11.6 0-22.6-4.6-30.8-12.8l-8.7-8.7-8.7 8.7c-17 17-44.6 17-61.6 0s-17-44.6 0-61.6l8.7-8.7-8.7-8.7c-17-17-17-44.6 0-61.6s44.6-17 61.6 0l8.7 8.7 8.7-8.7c17-17 44.6-17 61.6 0s17 44.6 0 61.6l-8.7 8.7 8.7 8.7c17 17 17 44.6 0 61.6-8.1 8.2-19.2 12.8-30.8 12.8z"/><path d="m414.6 321.4 14.4-14.4 14.4 14.4c13.9 13.9 36.4 13.9 50.3 0 13.9-13.9 13.9-36.4 0-50.3l-14.4-14.4 14.4-14.4c13.9-13.9 13.9-36.4 0-50.3-13.9-13.9-36.4-13.9-50.3 0l-14.4 14.4-14.4-14.4c-13.9-13.9-36.4-13.9-50.3 0-13.9 13.9-13.9 36.4 0 50.3l14.4 14.4-14.4 14.4c-13.9 13.9-13.9 36.4 0 50.3 13.9 13.9 36.4 13.9 50.3 0z" fill="#fe8205"/></g></g></g></svg>