<svg id="Layer_1" enable-background="new 0 0 512 512" viewBox="0 0 512 512" xmlns="http://www.w3.org/2000/svg"><g id="Layer_2_00000137097921026957483660000002172694028400178602_"><g id="Layer_1_copy_7"><g id="_11"><path d="m103.2 512c-38.2 0-69.1-31-69.2-69.2v-373.6c-.1-38.1 30.7-69.1 68.8-69.2 12.8 0 25.4 3.5 36.3 10.2l305.8 186.8c32.6 19.9 42.8 62.4 23 95-5.7 9.4-13.6 17.2-23 23l-305.8 186.8c-10.8 6.6-23.2 10.2-35.9 10.2z"/><path d="m440.7 203.9-305.7-186.8c-40.7-24.9-93 4.4-93 52.1v373.6c0 47.7 52.2 77 93 52.1l305.7-186.8c39-23.8 39-80.4 0-104.2z" fill="#fd4760"/></g></g></g></svg>