<svg id="Layer_1" enable-background="new 0 0 512 512" viewBox="0 0 512 512" xmlns="http://www.w3.org/2000/svg"><g id="Layer_2_00000003805701492675409370000008029212771422165129_"><g id="Layer_1_copy_7"><g id="_82"><path d="m255.2 512c-140.1-.1-253.6-113.8-253.5-254 0-.5 0-1 0-1.5 1.1-138.6 114.8-251.4 253.5-251.4h1.3c53.7.3 105.8 17.7 149 49.5l.2-5.1c1.5-27.7 24.4-49.5 52.3-49.5.9 0 1.8 0 2.7.1 28.8 1.5 51 26.1 49.5 54.9l-6.6 127.2c-1.4 27.8-24.3 49.6-52.2 49.6-.9 0-1.8 0-2.7-.1l-127-6.5c-28.8-1.4-51.1-25.9-49.7-54.7 1.3-27.9 24.4-49.9 52.4-49.8h.8c-21.7-11.1-45.7-16.9-70.1-16.8h-2.2c-81.1 1.1-148 65.4-152.2 146.3-4.6 85.3 60.8 158.2 146.1 162.8 65.1 3.5 125.3-34.1 150.7-94.1 7.8-18 25.6-29.7 45.2-29.5 3.4 0 6.7.3 10 1 26.7 5.5 44 31.6 38.5 58.3-.7 3.3-1.7 6.5-3 9.6-39.9 93.2-131.6 153.7-233 153.7z"/><path d="m9.7 256.6c-1 136.2 109.5 247.4 245.5 247.4 101.1 0 188.1-61.4 225.6-148.9 9-21-.7-45.4-21.7-54.4-2.6-1.1-5.3-2-8-2.5-19.1-3.9-38.5 5.9-46.1 23.8-24.8 58.2-82.6 99.2-149.7 99.2-92.6 0-167.4-77.8-162.4-171.4 4.5-85 75-152.7 160.1-153.9 37-.6 73 11.5 102.1 34.3l-28.2-1.5c-24.4-1.3-45.2 17.5-46.5 42-1.3 24.4 17.5 45.2 42 46.5l126.9 6.5h2.3c23.6 0 43-18.5 44.2-42l6.5-127.2c1.2-24.4-17.6-45.2-42-46.5-24.4-1.2-45.2 17.6-46.5 42l-1 20.5c-43.8-36.8-99.1-57.1-156.3-57.4-134.8-.7-245.7 108.8-246.8 243.5z" fill="#7584f2"/></g></g></g></svg>