<svg id="Layer_1" enable-background="new 0 0 512 512" viewBox="0 0 512 512" xmlns="http://www.w3.org/2000/svg"><g id="Layer_2_00000001659561137324766950000013386450869652070059_"><g id="Layer_1_copy_7"><g id="_83"><path d="m256.8 512c-101.4 0-193.1-60.5-233-153.7-10.8-25.1.8-54.1 25.9-64.9 3.1-1.3 6.3-2.3 9.6-3s6.6-1 10-1c19.6-.1 37.4 11.5 45.1 29.5 33.4 78.6 124.2 115.3 202.8 81.9 59.9-25.4 97.5-85.6 94-150.6-4.3-80.9-71.1-145.2-152.2-146.3h-2.2c-24.4-.1-48.4 5.7-70.1 16.8h.8c28.9-.1 52.3 23.3 52.4 52.1.1 28-21.9 51-49.8 52.4l-126.9 6.5c-1 0-1.8.1-2.7.1-27.8 0-50.8-21.8-52.2-49.6l-6.5-127.2c-1.5-28.8 20.7-53.4 49.5-54.9.9-.1 1.8-.1 2.7-.1 27.8 0 50.8 21.8 52.2 49.6l.2 5.1c43.2-31.9 95.3-49.2 149-49.5h1.3c138.7 0 252.3 112.8 253.4 251.4 1 140.1-111.9 254.5-252 255.5-.3-.1-.8-.1-1.3-.1z"/><path d="m502.3 256.6c1 136.2-109.5 247.4-245.5 247.4-101.1 0-188.1-61.4-225.6-148.9-9-21 .7-45.4 21.7-54.4 2.6-1.1 5.3-2 8-2.5 19.1-3.9 38.5 5.9 46.1 23.8 24.8 58.2 82.6 99.2 149.8 99.2 92.6 0 167.4-77.8 162.4-171.4-4.5-85-75-152.7-160.1-153.9-37-.6-73 11.5-102.1 34.3l28.2-1.5c24.4-1.3 45.2 17.5 46.5 42s-17.5 45.2-42 46.5l-126.9 6.5c-.8 0-1.5 0-2.3 0-23.6 0-43-18.5-44.2-42l-6.5-127.1c-1.3-24.5 17.5-45.3 41.9-46.5s45.3 17.5 46.5 41.9l1 20.5c43.8-36.8 99.1-57.2 156.3-57.4 134.8-.7 245.7 108.8 246.8 243.5z" fill="#7584f2"/></g></g></g></svg>