<svg id="Layer_1" enable-background="new 0 0 512 512" viewBox="0 0 512 512" xmlns="http://www.w3.org/2000/svg"><g id="Layer_2_00000169536571130917199580000001652191435603609241_"><g id="Layer_1_copy_7"><g id="_63"><path d="m255.9 512c-67.9.2-133.1-26.8-181.1-75-99.8-99.8-99.8-262.3.1-362.1 99.5-100.5 261.7-101.2 362.1-1.6s101.2 261.7 1.6 362.1c-.5.5-1.1 1.1-1.6 1.6-47.9 48.2-113.1 75.2-181.1 75zm-75-113.7c78.7 41.4 176 11.1 217.4-67.6 24.7-46.9 24.7-102.9 0-149.8zm75-303.1c-88.8-.1-160.8 71.8-160.9 160.6 0 26.2 6.4 52 18.6 75.2l217.4-217.4c-23.1-12.1-48.9-18.5-75.1-18.4z"/><path d="m431.3 80.5c-96.7-96.7-254.1-96.7-350.8 0s-96.7 254.1 0 350.8c96.9 96.9 253.9 96.9 350.8 0s96.9-253.9 0-350.8zm-294.8 56c55.2-55 140.9-65.2 207.5-24.7l-232.2 232.2c-39.7-65-31.5-151.3 24.7-207.5zm238.9 238.9c-55.2 55.2-140.9 65.4-207.5 24.7l232.2-232.2c40.6 66.5 30.4 152.3-24.7 207.5z" fill="#fd4760"/></g></g></g></svg>