<svg id="Layer_1" enable-background="new 0 0 512 512" viewBox="0 0 512 512" xmlns="http://www.w3.org/2000/svg"><g id="Layer_2_00000085940981309761355400000002062209918203770540_"><g id="Layer_1_copy_7"><g id="_41"><path d="m151.9 512c-31.8 0-57.7-25.8-57.7-57.7v-20.8c0-20.2 7-39.8 19.8-55.4l99.6-122.1-99.7-122.1c-12.8-15.7-19.7-35.2-19.8-55.4v-20.8c.1-31.9 25.9-57.7 57.8-57.7h208.3c31.8 0 57.7 25.8 57.7 57.7v20.8c0 20.2-7 39.8-19.8 55.4l-99.7 122.1 99.7 122.1c12.8 15.7 19.7 35.2 19.8 55.4v20.8c0 31.8-25.8 57.6-57.7 57.7z"/><path d="m409.8 78.5v-20.8c0-27.4-22.2-49.7-49.7-49.7h-208.2c-27.4 0-49.7 22.2-49.7 49.7v20.8c0 18.4 6.4 36.2 18 50.4l103.8 127.1-103.8 127.1c-11.6 14.2-18 32-18 50.4v20.8c0 27.4 22.2 49.7 49.7 49.7h208.3c27.4 0 49.7-22.2 49.7-49.7v-20.8c0-18.4-6.4-36.2-18-50.4l-103.9-127.1 103.8-127.1c11.7-14.2 18-32 18-50.4z" fill="#fd4760"/></g></g></g></svg>