<svg id="Layer_1" enable-background="new 0 0 512 512" viewBox="0 0 512 512" xmlns="http://www.w3.org/2000/svg"><g id="Layer_2_00000011019748697939145760000013848458938043507886_"><g id="Layer_1_copy_7"><g id="_12"><path d="m225.9 512c-12.3 0-23.1-8.5-26.8-21.2l-9.3-32.3c-10.4-3.4-20.5-7.6-30.2-12.5l-29.4 16.3c-4.5 2.5-9.6 3.8-14.8 3.9-7.2.1-14.1-2.7-19.2-7.8l-42.6-42.6c-8.7-8.7-10.3-22.4-3.9-33.9l16.3-29.4c-4.9-9.7-9.1-19.8-12.5-30.2l-32.3-9.3c-12.7-3.8-21.2-14.5-21.2-26.9v-60.2c0-12.3 8.5-23.1 21.2-26.8l32.3-9.3c3.4-10.4 7.6-20.5 12.5-30.2l-16.3-29.4c-6.4-11.6-4.8-25.2 3.9-33.9l42.6-42.6c5.1-5.1 12-7.9 19.2-7.8 5.2 0 10.3 1.4 14.8 3.9l29.4 16.3c9.7-4.9 19.8-9.1 30.2-12.5l9.3-32.3c3.7-12.8 14.5-21.3 26.8-21.3h60.2c12.3 0 23.1 8.5 26.8 21.2l9.3 32.3c10.4 3.4 20.5 7.6 30.2 12.5l29.4-16.3c4.5-2.5 9.6-3.8 14.8-3.9 7.2-.1 14.1 2.7 19.2 7.8l42.6 42.6c8.7 8.7 10.3 22.4 3.9 33.9l-16.3 29.4c4.9 9.7 9.1 19.8 12.5 30.2l32.3 9.3c12.7 3.7 21.3 14.4 21.3 26.7v60.2c0 12.3-8.5 23.1-21.2 26.8l-32.3 9.3c-3.4 10.4-7.6 20.5-12.5 30.2l16.3 29.4c6.4 11.6 4.8 25.2-3.9 33.9l-42.6 42.6c-5.1 5.1-12 7.9-19.2 7.8-5.2 0-10.3-1.4-14.8-3.9l-29.4-16.3c-9.7 4.9-19.8 9.1-30.2 12.5l-9.3 32.3c-3.7 12.7-14.4 21.3-26.8 21.3h-60.3zm30.1-333.2c-42.7 0-77.2 34.6-77.2 77.2s34.6 77.2 77.2 77.2 77.2-34.6 77.2-77.2c0-42.6-34.6-77.2-77.2-77.2z"/><path d="m488.5 206.8-36.4-10.5c-3.9-12.7-9-25.1-15.3-36.8l18.4-33.2c4.6-8.4 3.6-18.3-2.5-24.4l-42.6-42.6c-6.1-6.2-16-7.2-24.4-2.5l-33.2 18.4c-11.7-6.3-24.1-11.4-36.8-15.3l-10.5-36.4c-2.7-9.3-10.4-15.5-19.1-15.5h-60.2c-8.7 0-16.4 6.2-19.1 15.5l-10.5 36.4c-12.7 3.9-25.1 9-36.8 15.3l-33.2-18.4c-8.4-4.6-18.3-3.6-24.4 2.5l-42.6 42.6c-6.2 6.2-7.2 16-2.5 24.4l18.4 33.2c-6.3 11.7-11.4 24.1-15.3 36.8l-36.4 10.5c-9.3 2.7-15.5 10.4-15.5 19.1v60.2c0 8.7 6.2 16.4 15.5 19.1l36.4 10.5c3.9 12.7 9 25.1 15.3 36.8l-18.4 33.2c-4.6 8.4-3.6 18.3 2.5 24.4l42.6 42.6c6.2 6.2 16 7.2 24.4 2.5l33.2-18.4c11.7 6.3 24.1 11.4 36.8 15.3l10.5 36.4c2.6 9.2 10.4 15.5 19.1 15.5h60.2c8.7 0 16.4-6.2 19.1-15.5l10.5-36.4c12.7-3.9 25.1-9 36.8-15.3l33.2 18.4c8.4 4.6 18.3 3.6 24.4-2.5l42.6-42.6c6.2-6.1 7.2-16 2.5-24.4l-18.4-33.2c6.3-11.7 11.4-24.1 15.3-36.8l36.4-10.5c9.2-2.6 15.5-10.4 15.5-19.1v-60.2c0-8.7-6.2-16.4-15.5-19.1zm-232.5 134.4c-47.1 0-85.2-38.2-85.2-85.2s38.2-85.2 85.2-85.2 85.2 38.2 85.2 85.2-38.1 85.2-85.2 85.2z" fill="#7584f2"/></g></g></g></svg>