<svg id="Layer_1" enable-background="new 0 0 512 512" viewBox="0 0 512 512" xmlns="http://www.w3.org/2000/svg"><g id="Layer_2_00000155867789004987893550000003216020328989500605_"><g id="Layer_1_copy_7"><g id="_90"><path d="m135.4 512c-45.7 0-82.8-37.1-82.8-82.8v-153.6c0-40.3 29.1-74.8 68.8-81.6v-59.4c0-74.2 60.4-134.6 134.6-134.6 1.6 0 3.3 0 4.9.1 35 1.2 68.1 16.3 92.1 41.8 24.2 25.4 37.6 59.2 37.5 94.3v2.8c0 23.8-19.3 43.1-43 43.1-23.8 0-43.1-19.3-43.1-43.1v-4.4c-.1-26.4-21.3-47.9-47.7-48.5h-.7c-26.3 0-48.5 22.7-48.5 49.6v57.1h169.1c45.7.1 82.8 37.1 82.8 82.8v153.5c0 45.7-37.1 82.8-82.8 82.8h-241.2z"/><path d="m376.6 200.8h-177.1v-65.1c0-31.6 25.9-58.1 57.5-57.6 30.8.6 55.5 25.7 55.5 56.5v4.4c.6 19.4 16.7 34.6 36.1 34 18.6-.5 33.5-15.5 34-34v-2.8c0-68.4-53.6-125.7-121.9-128.1-70-2.5-128.7 52.2-131.2 122.2-.1 1.4-.1 2.9-.1 4.4v66.4c-38.9 3.1-68.8 35.6-68.8 74.6v153.5c0 41.3 33.5 74.8 74.8 74.8h241.2c41.3 0 74.8-33.5 74.8-74.8v-153.6c0-41.3-33.5-74.8-74.8-74.8z" fill="#1dd882"/></g></g></g></svg>