<svg id="Layer_1" enable-background="new 0 0 512 512" viewBox="0 0 512 512" xmlns="http://www.w3.org/2000/svg"><g id="Layer_2_00000170245035709061199720000014676588528389604739_"><g id="Layer_1_copy_7"><g id="_73"><path d="m65.4 512c-27.8 0-50.3-22.6-50.4-50.4v-198.7c0-27.8 22.5-50.4 50.4-50.4s50.4 22.5 50.4 50.4v148.4h280.5v-148.4c0-27.8 22.5-50.4 50.4-50.4s50.4 22.5 50.4 50.4v198.7c0 27.8-22.6 50.3-50.4 50.4z"/><path d="m489 461.6v-198.7c0-23.4-19-42.4-42.4-42.4s-42.4 19-42.4 42.4v156.4h-296.5v-156.4c0-23.4-19-42.4-42.4-42.4s-42.3 19-42.3 42.4v198.7c0 23.4 19 42.4 42.4 42.4h381.2c23.4 0 42.4-18.9 42.4-42.4 0 .1 0 .1 0 0z" fill="#fd4760"/><path d="m256 351.3c-27.8 0-50.3-22.6-50.4-50.4v-132.1c-24.8 12.7-55.1 2.9-67.8-21.9-10-19.5-6.2-43.2 9.2-58.6l73.6-73.6c19.7-19.7 51.6-19.7 71.2 0l73.3 73.3c19.7 19.7 19.6 51.6 0 71.2-15.5 15.5-39.3 19.2-58.8 9.1v132.5c0 27.9-22.5 50.4-50.3 50.5z"/><path d="m152.8 94 73.6-73.6c16.5-16.5 43.3-16.6 59.9 0l73.3 73.3c16.4 16.6 16.3 43.5-.4 59.9-16.5 16.3-43 16.3-59.5 0l-1.3-1.3v148.6c0 23.4-19 42.4-42.4 42.4s-42.4-19-42.4-42.4v-148l-1 1c-16.6 16.4-43.5 16.3-59.9-.4-16.3-16.5-16.3-43 .1-59.5z" fill="#fd4760"/></g></g></g></svg>