<svg id="Layer_1" enable-background="new 0 0 512 512" viewBox="0 0 512 512" xmlns="http://www.w3.org/2000/svg"><g id="Layer_2_00000031923864791302021830000004895618623122006148_"><g id="Layer_1_copy_7"><g id="_29"><path d="m337.6 512c-12.5 0-23.5-4-33.7-12.2-42.1-34-87.4-70.4-133.2-106.3-3.8-3-10.3-5.2-16.1-5.4-7.8-.3-16.2-.5-27-.5-4.9 0-9.9 0-14.8 0-5 0-9.9.1-14.9.1-3.4 0-6.9 0-10.3 0-25.9-.3-41.4-16-41.5-42.1-.1-56.8-.1-116.9-.1-178.7 0-26.8 15.5-42.3 42.3-42.5h10.5 14.6 14.6c11.5 0 20.3-.1 28.6-.4 4.7-.2 9.1-1.8 12.9-4.5 43.1-33.8 87.8-69.6 133.1-106.3 11-8.9 22.9-13.2 36.4-13.2h1.9c4.7.1 12.3.2 23.8.2h23.4 21.2c6.9 0 11.7 0 15.1.1 26 .4 41.6 16.1 41.6 42.1v152.6 60.8 53.4 156.6c0 30.9-15.1 46-46.1 46.1h-3.9c-5 0-11.7 0-19.1 0-9.2 0-19.5 0-29.1 0-14.1 0-23.6 0-28.9.2z"/><path d="m458 255.8v210c0 26.7-11.4 38-38.1 38.1-16.2 0-65-.2-81.2.1-11.4.2-20.9-3.3-29.8-10.5-44.2-35.7-88.5-71.3-133.3-106.3-5.5-4.3-13.7-6.9-20.8-7.1-22.4-.9-44.8-.2-67.3-.4-21.5-.2-33.4-12.4-33.5-34.2-.1-59.5-.1-119.1 0-178.7 0-22.4 11.9-34.3 34.3-34.5 22.8-.2 45.6.4 68.4-.3 6.4-.3 12.5-2.4 17.6-6.2 44.7-35.2 89.1-70.6 133.2-106.4 9.9-8 20.3-11.8 33-11.4 17 .5 66.5-.1 83.5.2 21.7.4 34 12.7 34 34.2.1 71.1.1 142.3 0 213.4z" fill="#fe8205"/></g></g></g></svg>