<svg id="Layer_1" enable-background="new 0 0 512 512" viewBox="0 0 512 512" xmlns="http://www.w3.org/2000/svg"><g id="Layer_2_00000123420353656986392640000017228282881327768222_"><g id="Layer_1_copy_7"><g id="_27"><path d="m203.3 434.7c-9.1 0-17.9-3.1-24.8-9-28.9-23.3-60-48.4-91.7-73.1-2.9-2-6.2-3.1-9.7-3.2-5.3-.2-11.1-.3-18.5-.3-3.4 0-6.8 0-10.2 0s-6.8 0-10.2 0c-2.4 0-4.8 0-7.1 0-19.1-.2-31-12.3-31-31.5-.1-39.3-.1-80.7 0-123 0-19.7 11.8-31.6 31.6-31.7h7.2 10.1 10c7.9 0 13.9-.1 19.6-.2 2.7-.1 5.3-1 7.5-2.5 29.7-23.3 60.5-48 91.6-73.2 7.4-6.3 16.9-9.7 26.6-9.7h1.4c3.2.1 8.4.1 16.3.1h16.1 14.6c4.7 0 8 0 10.4.1 19.2.3 31.1 12.4 31.1 31.5.1 35 0 70.6 0 105v75.5 111c0 22.6-11.5 34.1-34.2 34.2h-2.8-13.2-20c-9.7 0-16.2 0-19.9.1z"/><path d="m262.9 85.4c-11.7-.2-45.8.2-57.5-.1-8.3-.3-16.4 2.5-22.7 7.8-30.4 24.6-61 49.1-91.7 73.3-3.5 2.6-7.8 4.1-12.2 4.2-15.7.5-31.4.1-47.1.2-15.5.1-23.7 8.4-23.7 23.8-.1 41-.1 82 0 123 0 15 8.2 23.3 23.1 23.5 15.4.2 30.9-.4 46.3.3 5.1.2 10.1 1.9 14.3 4.9 30.8 24.1 61.3 48.6 91.7 73.2 5.7 4.9 13 7.4 20.5 7.2 11.2-.2 44.7 0 55.9-.1 18.4 0 26.2-7.9 26.2-26.2 0-48.2 0-96.4 0-144.6 0-49 0-98 0-146.9.1-14.7-8.3-23.2-23.1-23.5z" fill="#fe8205"/><path d="m415.5 353.3c-23.4 0-42.4-19-42.4-42.4v-11.7h-11.7c-23.4-.4-42.1-19.6-41.8-43.1.4-22.9 18.9-41.4 41.8-41.8h11.7v-11.7c-.4-23.4 18.3-42.7 41.8-43.1 23.4-.4 42.7 18.3 43.1 41.8v1.3 11.7h11.7c23.4-.4 42.7 18.3 43.1 41.8.4 23.4-18.3 42.7-41.8 43.1-.4 0-.9 0-1.3 0h-11.7v11.7c-.1 23.3-19.1 42.3-42.5 42.4z"/><path d="m469.6 222.3h-19.7v-19.7c0-19-15.4-34.4-34.4-34.4-19 0-34.4 15.4-34.4 34.4v19.7h-19.7c-19 0-34.4 15.4-34.4 34.4 0 19 15.4 34.4 34.4 34.4h19.7v19.7c0 19 15.4 34.4 34.4 34.5 19 0 34.4-15.4 34.4-34.4v-19.7h19.7c19 0 34.4-15.4 34.4-34.4 0-19.1-15.4-34.5-34.4-34.5z" fill="#fe8205"/></g></g></g></svg>